G04*
G04 #@! TF.GenerationSoftware,Altium Limited,Altium Designer,20.0.9 (164)*
G04*
G04 Layer_Color=16711935*
%FSLAX25Y25*%
%MOIN*%
G70*
G01*
G75*
%ADD209R,0.05524X0.05524*%
%ADD210C,0.05524*%
%ADD211C,0.17300*%
%ADD212R,0.08772X0.08772*%
%ADD213C,0.08772*%
%ADD214C,0.06706*%
%ADD215R,0.06706X0.06706*%
%ADD216R,0.07099X0.07099*%
%ADD217C,0.07099*%
%ADD218C,0.10249*%
%ADD219C,0.05918*%
%ADD220C,0.16548*%
%ADD221C,0.09658*%
%ADD222R,0.09658X0.09658*%
%ADD223R,0.07532X0.07532*%
%ADD224C,0.07532*%
%ADD225C,0.10446*%
%ADD226C,0.07887*%
%ADD227R,0.06706X0.06706*%
%ADD228C,0.06312*%
%ADD229C,0.05800*%
D209*
X106342Y345500D02*
D03*
D210*
X86658D02*
D03*
X147874Y14000D02*
D03*
D211*
X432000Y12000D02*
D03*
Y452000D02*
D03*
X12000D02*
D03*
Y12000D02*
D03*
D212*
X200000Y386000D02*
D03*
X278000D02*
D03*
D213*
X190000D02*
D03*
X180000D02*
D03*
X268000D02*
D03*
X258000D02*
D03*
D214*
X208000Y8000D02*
D03*
X218000D02*
D03*
X228000D02*
D03*
X238000D02*
D03*
X248000D02*
D03*
X258000D02*
D03*
X268000D02*
D03*
X124252Y14000D02*
D03*
X155748D02*
D03*
X62024Y310000D02*
D03*
X392000Y138472D02*
D03*
D215*
X278000Y8000D02*
D03*
X89976Y310000D02*
D03*
D216*
X181000Y8000D02*
D03*
D217*
X191000D02*
D03*
D218*
X118516Y385307D02*
D03*
X65484D02*
D03*
X118516Y398693D02*
D03*
X65484D02*
D03*
X373484Y210693D02*
D03*
X426516D02*
D03*
X373484Y197307D02*
D03*
X426516D02*
D03*
X388693Y340516D02*
D03*
Y287484D02*
D03*
X375307Y340516D02*
D03*
Y287484D02*
D03*
Y373484D02*
D03*
Y426516D02*
D03*
X388693Y373484D02*
D03*
Y426516D02*
D03*
D219*
X132126Y14000D02*
D03*
X140000D02*
D03*
D220*
X417906Y399339D02*
D03*
Y302882D02*
D03*
X27020Y278000D02*
D03*
Y374457D02*
D03*
Y81772D02*
D03*
Y178228D02*
D03*
D221*
X422000Y371780D02*
D03*
Y358000D02*
D03*
Y344221D02*
D03*
Y330441D02*
D03*
X408220Y371780D02*
D03*
Y358000D02*
D03*
Y344221D02*
D03*
X22925Y305559D02*
D03*
Y319339D02*
D03*
Y333118D02*
D03*
Y346898D02*
D03*
X36705Y305559D02*
D03*
Y319339D02*
D03*
Y333118D02*
D03*
X22925Y109331D02*
D03*
Y123110D02*
D03*
Y136890D02*
D03*
Y150669D02*
D03*
X36705Y109331D02*
D03*
Y123110D02*
D03*
Y136890D02*
D03*
D222*
X408220Y330441D02*
D03*
X36705Y346898D02*
D03*
Y150669D02*
D03*
D223*
X278000Y440000D02*
D03*
X198000D02*
D03*
D224*
X258000D02*
D03*
X178000D02*
D03*
D225*
X314000Y270000D02*
D03*
Y210000D02*
D03*
D226*
Y255000D02*
D03*
Y240000D02*
D03*
Y225000D02*
D03*
X118331Y215000D02*
D03*
Y240000D02*
D03*
Y265000D02*
D03*
D227*
X392000Y168000D02*
D03*
D228*
X216000Y440000D02*
D03*
Y400000D02*
D03*
X160000D02*
D03*
Y440000D02*
D03*
X296000D02*
D03*
Y400000D02*
D03*
X240000D02*
D03*
Y440000D02*
D03*
D229*
X212000Y94000D02*
D03*
X382000Y236000D02*
D03*
X252000Y19000D02*
D03*
X344000Y394000D02*
D03*
X326000Y390000D02*
D03*
X162000Y160000D02*
D03*
X246000Y156000D02*
D03*
X402000Y114000D02*
D03*
X322000Y356000D02*
D03*
X274000Y90000D02*
D03*
X292000Y70000D02*
D03*
X356000Y288000D02*
D03*
X334000Y44000D02*
D03*
X182000Y20000D02*
D03*
X178000Y106000D02*
D03*
Y114000D02*
D03*
X208000Y48000D02*
D03*
X62000Y16000D02*
D03*
X148000Y34000D02*
D03*
X156000Y122000D02*
D03*
X102000Y28000D02*
D03*
X188000Y36000D02*
D03*
X196000D02*
D03*
X218000Y32000D02*
D03*
X358000Y44000D02*
D03*
M02*
