G04*
G04 #@! TF.GenerationSoftware,Altium Limited,Altium Designer,20.0.9 (164)*
G04*
G04 Layer_Color=32768*
%FSLAX25Y25*%
%MOIN*%
G70*
G01*
G75*
%ADD12C,0.00394*%
%ADD255C,0.00197*%
D12*
X313039Y75602D02*
Y88398D01*
X338630D01*
Y75602D02*
Y88398D01*
X313039Y75602D02*
X338630D01*
X107650Y35602D02*
Y48398D01*
X82059Y35602D02*
X107650D01*
X82059D02*
Y48398D01*
X107650D01*
Y49602D02*
Y62398D01*
X82059Y49602D02*
X107650D01*
X82059D02*
Y62398D01*
X107650D01*
Y63602D02*
Y76398D01*
X82059Y63602D02*
X107650D01*
X82059D02*
Y76398D01*
X107650D01*
X313039Y91602D02*
Y104398D01*
X338630D01*
Y91602D02*
Y104398D01*
X313039Y91602D02*
X338630D01*
X82488Y89512D02*
X100008D01*
Y78488D02*
Y89512D01*
X82488Y78488D02*
X100008D01*
X82488D02*
Y89512D01*
Y101512D02*
X100008D01*
Y90488D02*
Y101512D01*
X82488Y90488D02*
X100008D01*
X82488D02*
Y101512D01*
X117362Y26402D02*
X162638D01*
Y1598D02*
Y26402D01*
X117362Y1598D02*
X162638D01*
X117362D02*
Y26402D01*
X211063Y103441D02*
X268937D01*
Y67299D02*
Y103441D01*
X211063Y67299D02*
X268937D01*
X211063D02*
Y103441D01*
X286264Y22315D02*
X321736D01*
Y1685D02*
Y22315D01*
X286264Y1685D02*
X321736D01*
X286264D02*
Y22315D01*
X98252Y316378D02*
X340409D01*
Y163622D02*
Y316378D01*
X98252Y163622D02*
X340409D01*
X98252D02*
Y316378D01*
D255*
X124059Y345500D02*
G03*
X124059Y345500I-27559J0D01*
G01*
X424480Y153236D02*
G03*
X424480Y153236I-32480J0D01*
G01*
X382646Y242126D02*
X413354D01*
X382646D02*
Y257874D01*
X413354D01*
Y242126D02*
Y257874D01*
X323146Y418803D02*
X353854D01*
X323146D02*
Y434551D01*
X353854D01*
Y418803D02*
Y434551D01*
X168012Y372319D02*
X211988D01*
X168012D02*
Y392988D01*
X211988D01*
Y372319D02*
Y392988D01*
X246012Y372319D02*
X289988D01*
X246012D02*
Y392988D01*
X289988D01*
Y372319D02*
Y392988D01*
X433945Y77693D02*
Y94307D01*
X422055Y77693D02*
X433945D01*
X422055D02*
Y94307D01*
X433945D01*
Y29693D02*
Y46307D01*
X422055Y29693D02*
X433945D01*
X422055D02*
Y46307D01*
X433945D01*
X184031Y8000D02*
X187969D01*
X186000Y6032D02*
Y9968D01*
X174622Y1917D02*
Y14083D01*
Y1917D02*
X197378D01*
Y14083D01*
X174622D02*
X197378D01*
X58528Y33142D02*
Y50858D01*
X49472Y33142D02*
X58528D01*
X49472D02*
Y50858D01*
X58528D01*
X339370Y85937D02*
X352756D01*
Y78063D02*
Y85937D01*
X339370Y78063D02*
X352756D01*
X339370D02*
Y85937D01*
X354528Y231142D02*
Y248858D01*
X345472Y231142D02*
X354528D01*
X345472D02*
Y248858D01*
X354528D01*
X407449Y225012D02*
Y238988D01*
X390913D02*
X407449D01*
X390913Y225012D02*
Y238988D01*
Y225012D02*
X407449D01*
X391374Y103835D02*
Y108165D01*
Y103835D02*
X400626D01*
Y108165D01*
X391374D02*
X400626D01*
X387209Y53835D02*
Y58165D01*
Y53835D02*
X396461D01*
Y58165D01*
X387209D02*
X396461D01*
X63583Y26189D02*
Y29811D01*
X56417D02*
X63583D01*
X56417Y26189D02*
Y29811D01*
Y26189D02*
X63583D01*
X289173Y35335D02*
X310827D01*
Y64665D01*
X289173D02*
X310827D01*
X289173Y35335D02*
Y64665D01*
X67567Y94063D02*
X80953D01*
X67567D02*
Y101937D01*
X80953D01*
Y94063D02*
Y101937D01*
X67567Y80063D02*
X80953D01*
X67567D02*
Y87937D01*
X80953D01*
Y80063D02*
Y87937D01*
X67307Y66063D02*
X80693D01*
X67307D02*
Y73937D01*
X80693D01*
Y66063D02*
Y73937D01*
X67047Y52063D02*
X80433D01*
X67047D02*
Y59937D01*
X80433D01*
Y52063D02*
Y59937D01*
X67307Y42063D02*
X80693D01*
X67307D02*
Y49937D01*
X80693D01*
Y42063D02*
Y49937D01*
X339370Y101937D02*
X352756D01*
Y94063D02*
Y101937D01*
X339370Y94063D02*
X352756D01*
X339370D02*
Y101937D01*
X241307Y35937D02*
X254693D01*
Y28063D02*
Y35937D01*
X241307Y28063D02*
X254693D01*
X241307D02*
Y35937D01*
X223307D02*
X236693D01*
Y28063D02*
Y35937D01*
X223307Y28063D02*
X236693D01*
X223307D02*
Y35937D01*
X323937Y51047D02*
Y64433D01*
X316063Y51047D02*
X323937D01*
X316063D02*
Y64433D01*
X323937D01*
X331335Y51173D02*
Y72827D01*
Y51173D02*
X360665D01*
Y72827D01*
X331335D02*
X360665D01*
X339012Y30811D02*
Y47346D01*
X352988D01*
Y30811D02*
Y47346D01*
X339012Y30811D02*
X352988D01*
X95988Y8673D02*
Y30327D01*
X66658D02*
X95988D01*
X66658Y8673D02*
Y30327D01*
Y8673D02*
X95988D01*
X146409Y110653D02*
X157591D01*
X146409D02*
Y117347D01*
X157591D01*
Y110653D02*
Y117347D01*
X329173Y353335D02*
X350827D01*
Y382665D01*
X329173D02*
X350827D01*
X329173Y353335D02*
Y382665D01*
X200654Y86409D02*
Y97591D01*
X207347D01*
Y86409D02*
Y97591D01*
X200654Y86409D02*
X207347D01*
Y51299D02*
Y62480D01*
X200654Y51299D02*
X207347D01*
X200654D02*
Y62480D01*
X207347D01*
X172409Y34653D02*
X183591D01*
X172409D02*
Y41346D01*
X183591D01*
Y34653D02*
Y41346D01*
X172409Y26654D02*
X183591D01*
X172409D02*
Y33347D01*
X183591D01*
Y26654D02*
Y33347D01*
X146409Y102654D02*
X157591D01*
X146409D02*
Y109346D01*
X157591D01*
Y102654D02*
Y109346D01*
X135346Y49520D02*
Y60701D01*
X128654Y49520D02*
X135346D01*
X128654D02*
Y60701D01*
X135346D01*
X143347Y49520D02*
Y60701D01*
X136653Y49520D02*
X143347D01*
X136653D02*
Y60701D01*
X143347D01*
X145524Y47524D02*
Y100476D01*
X198476D01*
Y47524D02*
Y100476D01*
X145524Y47524D02*
X198476D01*
X98417Y20189D02*
Y23811D01*
Y20189D02*
X105583D01*
Y23811D01*
X98417D02*
X105583D01*
X402709Y263847D02*
X572827D01*
Y438374D01*
X402709D02*
X572827D01*
X402709Y263847D02*
Y438374D01*
X-127902Y413492D02*
X42217D01*
X-127902Y238965D02*
Y413492D01*
Y238965D02*
X42217D01*
Y413492D01*
X-127902Y217264D02*
X42217D01*
X-127902Y42736D02*
Y217264D01*
Y42736D02*
X42217D01*
Y217264D01*
X346654Y252410D02*
Y263591D01*
X353346D01*
Y252410D02*
Y263591D01*
X346654Y252410D02*
X353346D01*
X247016Y427165D02*
X288984D01*
X247016D02*
Y447638D01*
X288984D01*
Y427165D02*
Y447638D01*
X167016Y427165D02*
X208984D01*
X167016D02*
Y447638D01*
X208984D01*
Y427165D02*
Y447638D01*
X328272Y400866D02*
Y404488D01*
X321106D02*
X328272D01*
X321106Y400866D02*
Y404488D01*
Y400866D02*
X328272D01*
X330232Y399689D02*
X346768D01*
X330232D02*
Y413665D01*
X346768D01*
Y399689D02*
Y413665D01*
X388764Y226189D02*
Y229811D01*
X381598D02*
X388764D01*
X381598Y226189D02*
Y229811D01*
Y226189D02*
X388764D01*
X369870Y45500D02*
X376878D01*
Y57035D01*
X369870D02*
X376878D01*
X369870Y45500D02*
Y57035D01*
X406177Y50232D02*
X415823D01*
Y40390D02*
Y50232D01*
X406177Y40390D02*
X415823D01*
X406177D02*
Y50232D01*
X372496Y94232D02*
X379504D01*
Y105768D01*
X372496D02*
X379504D01*
X372496Y94232D02*
Y105768D01*
X404077Y110921D02*
X418102D01*
Y101079D02*
Y110921D01*
X404077Y101079D02*
X418102D01*
X404077D02*
Y110921D01*
X423374Y100165D02*
X432626D01*
Y95835D02*
Y100165D01*
X423374Y95835D02*
X432626D01*
X423374D02*
Y100165D01*
X406193Y98921D02*
X415839D01*
Y89079D02*
Y98921D01*
X406193Y89079D02*
X415839D01*
X406193D02*
Y98921D01*
X184409Y338653D02*
X195591D01*
X184409D02*
Y345346D01*
X195591D01*
Y338653D02*
Y345346D01*
X170189Y353583D02*
X173811D01*
X170189Y346417D02*
Y353583D01*
Y346417D02*
X173811D01*
Y353583D01*
X206417Y358189D02*
Y361811D01*
Y358189D02*
X213583D01*
Y361811D01*
X206417D02*
X213583D01*
X284417Y360189D02*
Y363811D01*
Y360189D02*
X291583D01*
Y363811D01*
X284417D02*
X291583D01*
X248189Y355583D02*
X251811D01*
X248189Y348417D02*
Y355583D01*
Y348417D02*
X251811D01*
Y355583D01*
X262409Y340653D02*
X273590D01*
X262409D02*
Y347346D01*
X273590D01*
Y340653D02*
Y347346D01*
X404095Y62921D02*
X418120D01*
Y53079D02*
Y62921D01*
X404095Y53079D02*
X418120D01*
X404095D02*
Y62921D01*
X423209Y52165D02*
X432461D01*
Y47835D02*
Y52165D01*
X423209Y47835D02*
X432461D01*
X423209D02*
Y52165D01*
M02*
