G04*
G04 #@! TF.GenerationSoftware,Altium Limited,Altium Designer,20.0.9 (164)*
G04*
G04 Layer_Color=16711935*
%FSLAX25Y25*%
%MOIN*%
G70*
G01*
G75*
%ADD10C,0.00787*%
%ADD11C,0.01000*%
%ADD12C,0.00394*%
%ADD14C,0.01575*%
%ADD16C,0.00500*%
D10*
X392394Y187685D02*
G03*
X392394Y187685I-394J0D01*
G01*
X123071Y22465D02*
X156929D01*
Y5535D02*
Y22465D01*
X123071Y5535D02*
X156929D01*
X123071D02*
Y22465D01*
X215000Y97004D02*
X265000D01*
Y74996D02*
Y97004D01*
X215000Y74996D02*
X265000D01*
X215000D02*
Y97004D01*
X329939Y1535D02*
X359467D01*
X329939D02*
Y21220D01*
X359467D01*
Y1535D02*
Y21220D01*
X410032Y106984D02*
X413969D01*
Y105016D02*
Y106984D01*
X410032Y105016D02*
X413969D01*
X410032D02*
Y106984D01*
X410049Y58984D02*
X413986D01*
Y57016D02*
Y58984D01*
X410049Y57016D02*
X413986D01*
X410049D02*
Y58984D01*
D11*
X53004Y378752D02*
Y405248D01*
Y378752D02*
X130996D01*
Y405248D01*
X53004D02*
X130996D01*
X361004Y217248D02*
X438996D01*
Y190752D02*
Y217248D01*
X361004Y190752D02*
X438996D01*
X361004D02*
Y217248D01*
X395248Y275004D02*
Y352996D01*
X368752Y275004D02*
X395248D01*
X368752D02*
Y352996D01*
X395248D01*
X102189Y312441D02*
X330142D01*
Y167559D02*
Y312441D01*
X102189Y167559D02*
X330142D01*
X102189D02*
Y312441D01*
X368752Y361004D02*
Y438996D01*
X395248D01*
Y361004D02*
Y438996D01*
X368752Y361004D02*
X395248D01*
X442709Y411740D02*
X439510D01*
Y413340D01*
X440043Y413873D01*
X441109D01*
X441642Y413340D01*
Y411740D01*
X440043Y417072D02*
X439510Y416539D01*
Y415472D01*
X440043Y414939D01*
X442175D01*
X442709Y415472D01*
Y416539D01*
X442175Y417072D01*
X439510Y418138D02*
X442709D01*
Y419738D01*
X442175Y420271D01*
X441642D01*
X441109Y419738D01*
Y418138D01*
Y419738D01*
X440576Y420271D01*
X440043D01*
X439510Y419738D01*
Y418138D01*
Y426669D02*
Y424536D01*
X442709D01*
Y426669D01*
X441109Y424536D02*
Y425602D01*
X439510Y427735D02*
X442709D01*
Y429334D01*
X442175Y429868D01*
X440043D01*
X439510Y429334D01*
Y427735D01*
X440043Y433067D02*
X439510Y432534D01*
Y431467D01*
X440043Y430934D01*
X442175D01*
X442709Y431467D01*
Y432534D01*
X442175Y433067D01*
X441109D01*
Y432000D01*
X439510Y436266D02*
Y434133D01*
X442709D01*
Y436266D01*
X441109Y434133D02*
Y435199D01*
X2217Y265598D02*
X5415D01*
Y263999D01*
X4882Y263466D01*
X3816D01*
X3283Y263999D01*
Y265598D01*
X4882Y260267D02*
X5415Y260800D01*
Y261866D01*
X4882Y262399D01*
X2750D01*
X2217Y261866D01*
Y260800D01*
X2750Y260267D01*
X5415Y259201D02*
X2217D01*
Y257601D01*
X2750Y257068D01*
X3283D01*
X3816Y257601D01*
Y259201D01*
Y257601D01*
X4349Y257068D01*
X4882D01*
X5415Y257601D01*
Y259201D01*
Y250670D02*
Y252802D01*
X2217D01*
Y250670D01*
X3816Y252802D02*
Y251736D01*
X5415Y249604D02*
X2217D01*
Y248004D01*
X2750Y247471D01*
X4882D01*
X5415Y248004D01*
Y249604D01*
X4882Y244272D02*
X5415Y244805D01*
Y245871D01*
X4882Y246405D01*
X2750D01*
X2217Y245871D01*
Y244805D01*
X2750Y244272D01*
X3816D01*
Y245338D01*
X5415Y241073D02*
Y243206D01*
X2217D01*
Y241073D01*
X3816Y243206D02*
Y242139D01*
X2217Y69370D02*
X5415D01*
Y67771D01*
X4882Y67237D01*
X3816D01*
X3283Y67771D01*
Y69370D01*
X4882Y64038D02*
X5415Y64572D01*
Y65638D01*
X4882Y66171D01*
X2750D01*
X2217Y65638D01*
Y64572D01*
X2750Y64038D01*
X5415Y62972D02*
X2217D01*
Y61373D01*
X2750Y60839D01*
X3283D01*
X3816Y61373D01*
Y62972D01*
Y61373D01*
X4349Y60839D01*
X4882D01*
X5415Y61373D01*
Y62972D01*
Y54442D02*
Y56574D01*
X2217D01*
Y54442D01*
X3816Y56574D02*
Y55508D01*
X5415Y53375D02*
X2217D01*
Y51776D01*
X2750Y51243D01*
X4882D01*
X5415Y51776D01*
Y53375D01*
X4882Y48044D02*
X5415Y48577D01*
Y49643D01*
X4882Y50176D01*
X2750D01*
X2217Y49643D01*
Y48577D01*
X2750Y48044D01*
X3816D01*
Y49110D01*
X5415Y44845D02*
Y46977D01*
X2217D01*
Y44845D01*
X3816Y46977D02*
Y45911D01*
D12*
X122091Y345500D02*
G03*
X122091Y345500I-25591J0D01*
G01*
X385500Y243740D02*
X410500D01*
X385500D02*
Y256260D01*
X410500D01*
Y243740D02*
Y256260D01*
X326000Y420417D02*
X351000D01*
X326000D02*
Y432937D01*
X351000D01*
Y420417D02*
Y432937D01*
X168996Y373303D02*
X211004D01*
X168996D02*
Y392004D01*
X211004D01*
Y373303D02*
Y392004D01*
X206004Y373303D02*
X211004Y378303D01*
X246996Y373303D02*
X289004D01*
X246996D02*
Y392004D01*
X289004D01*
Y373303D02*
Y392004D01*
X284004Y373303D02*
X289004Y378303D01*
X432921Y79701D02*
Y92299D01*
X423079Y79701D02*
X432921D01*
X423079D02*
Y92299D01*
X432921D01*
Y31701D02*
Y44299D01*
X423079Y31701D02*
X432921D01*
X423079D02*
Y44299D01*
X432921D01*
X176000Y3000D02*
Y13000D01*
Y3000D02*
X196000D01*
Y13000D01*
X176000D02*
X196000D01*
X57150Y35898D02*
Y48102D01*
X50850Y35898D02*
X57150D01*
X50850D02*
Y48102D01*
X57150D01*
X342126Y84461D02*
X350000D01*
Y79539D02*
Y84461D01*
X342126Y79539D02*
X350000D01*
X342126D02*
Y84461D01*
X328000Y79539D02*
Y84461D01*
X320126D02*
X328000D01*
X320126Y79539D02*
Y84461D01*
Y79539D02*
X328000D01*
X353150Y233898D02*
Y246102D01*
X346850Y233898D02*
X353150D01*
X346850D02*
Y246102D01*
X353150D01*
X398638Y226244D02*
X402378Y229984D01*
Y226244D02*
Y237756D01*
X395984D02*
X402378D01*
X395984Y226244D02*
Y237756D01*
Y226244D02*
X402378D01*
X394032Y105016D02*
Y106984D01*
Y105016D02*
X397969D01*
Y106984D01*
X394032D02*
X397969D01*
X389866Y55016D02*
Y56984D01*
Y55016D02*
X393803D01*
Y56984D01*
X389866D02*
X393803D01*
X92689Y39539D02*
Y44461D01*
Y39539D02*
X100563D01*
Y44461D01*
X92689D02*
X100563D01*
X92689Y53539D02*
Y58461D01*
Y53539D02*
X100563D01*
Y58461D01*
X92689D02*
X100563D01*
X92689Y67539D02*
Y72461D01*
Y67539D02*
X100563D01*
Y72461D01*
X92689D02*
X100563D01*
X328000Y95539D02*
Y100461D01*
X320126D02*
X328000D01*
X320126Y95539D02*
Y100461D01*
Y95539D02*
X328000D01*
X88098Y82425D02*
X94398D01*
Y85575D01*
X88098D02*
X94398D01*
X88098Y82425D02*
Y85575D01*
Y94425D02*
X94398D01*
Y97575D01*
X88098D02*
X94398D01*
X88098Y94425D02*
Y97575D01*
X61968Y27016D02*
Y28984D01*
X58031D02*
X61968D01*
X58031Y27016D02*
Y28984D01*
Y27016D02*
X61968D01*
X290354Y47323D02*
X295354Y42323D01*
X290354D02*
X309646D01*
Y57677D01*
X290354D02*
X309646D01*
X290354Y42323D02*
Y57677D01*
X70323Y95539D02*
X78197D01*
X70323D02*
Y100461D01*
X78197D01*
Y95539D02*
Y100461D01*
X70323Y81539D02*
X78197D01*
X70323D02*
Y86461D01*
X78197D01*
Y81539D02*
Y86461D01*
X70063Y67539D02*
X77937D01*
X70063D02*
Y72461D01*
X77937D01*
Y67539D02*
Y72461D01*
X69803Y53539D02*
X77677D01*
X69803D02*
Y58461D01*
X77677D01*
Y53539D02*
Y58461D01*
X70063Y43539D02*
X77937D01*
X70063D02*
Y48461D01*
X77937D01*
Y43539D02*
Y48461D01*
X342126Y100461D02*
X350000D01*
Y95539D02*
Y100461D01*
X342126Y95539D02*
X350000D01*
X342126D02*
Y100461D01*
X244063Y34461D02*
X251937D01*
Y29539D02*
Y34461D01*
X244063Y29539D02*
X251937D01*
X244063D02*
Y34461D01*
X226063D02*
X233937D01*
Y29539D02*
Y34461D01*
X226063Y29539D02*
X233937D01*
X226063D02*
Y34461D01*
X295043Y18378D02*
X312957D01*
Y5622D02*
Y18378D01*
X295043Y5622D02*
X312957D01*
X295043D02*
Y18378D01*
X322461Y53803D02*
Y61677D01*
X317539Y53803D02*
X322461D01*
X317539D02*
Y61677D01*
X322461D01*
X338323Y66646D02*
X343323Y71646D01*
X338323Y52354D02*
Y71646D01*
Y52354D02*
X353677D01*
Y71646D01*
X338323D02*
X353677D01*
X340244Y35882D02*
Y42276D01*
X351756D01*
Y35882D02*
Y42276D01*
X340244Y35882D02*
X351756D01*
X340244Y39622D02*
X343984Y35882D01*
X84000Y9854D02*
X89000Y14854D01*
Y9854D02*
Y29146D01*
X73646D02*
X89000D01*
X73646Y9854D02*
Y29146D01*
Y9854D02*
X89000D01*
X148063Y111539D02*
X155937D01*
X148063D02*
Y116461D01*
X155937D01*
Y111539D02*
Y116461D01*
X330354Y365323D02*
X335354Y360323D01*
X330354D02*
X349646D01*
Y375677D01*
X330354D02*
X349646D01*
X330354Y360323D02*
Y375677D01*
X201539Y88063D02*
Y95937D01*
X206461D01*
Y88063D02*
Y95937D01*
X201539Y88063D02*
X206461D01*
Y52953D02*
Y60827D01*
X201539Y52953D02*
X206461D01*
X201539D02*
Y60827D01*
X206461D01*
X174063Y35539D02*
X181937D01*
X174063D02*
Y40461D01*
X181937D01*
Y35539D02*
Y40461D01*
X174063Y27539D02*
X181937D01*
X174063D02*
Y32461D01*
X181937D01*
Y27539D02*
Y32461D01*
X148063Y103539D02*
X155937D01*
X148063D02*
Y108461D01*
X155937D01*
Y103539D02*
Y108461D01*
X134461Y51173D02*
Y59047D01*
X129539Y51173D02*
X134461D01*
X129539D02*
Y59047D01*
X134461D01*
X142461Y51173D02*
Y59047D01*
X137539Y51173D02*
X142461D01*
X137539D02*
Y59047D01*
X142461D01*
X152315Y54315D02*
Y93685D01*
X191685D01*
Y54315D02*
Y93685D01*
X152315Y54315D02*
X191685D01*
X152315Y56283D02*
X154283Y54315D01*
X100031Y21016D02*
Y22984D01*
Y21016D02*
X103969D01*
Y22984D01*
X100031D02*
X103969D01*
X347539Y254063D02*
Y261937D01*
X352461D01*
Y254063D02*
Y261937D01*
X347539Y254063D02*
X352461D01*
X248000Y428150D02*
X288000D01*
X248000D02*
Y446654D01*
X288000D01*
Y428150D02*
Y446654D01*
X278000Y428150D02*
X288000Y438150D01*
X168000Y428150D02*
X208000D01*
X168000D02*
Y446654D01*
X208000D01*
Y428150D02*
Y446654D01*
X198000Y428150D02*
X208000Y438150D01*
X326658Y401693D02*
Y403661D01*
X322721D02*
X326658D01*
X322721Y401693D02*
Y403661D01*
Y401693D02*
X326658D01*
X335303Y400921D02*
X341697D01*
X335303D02*
Y412433D01*
X341697D01*
Y400921D02*
Y412433D01*
X337957Y400921D02*
X341697Y404661D01*
X387150Y227016D02*
Y228984D01*
X383213D02*
X387150D01*
X383213Y227016D02*
Y228984D01*
Y227016D02*
X387150D01*
X370913Y47331D02*
X375835D01*
Y55205D01*
X370913D02*
X375835D01*
X370913Y47331D02*
Y55205D01*
X408638Y49445D02*
X413362D01*
Y41177D02*
Y49445D01*
X408638Y41177D02*
X413362D01*
X408638D02*
Y49445D01*
Y47476D02*
X410606Y49445D01*
X373539Y96063D02*
X378461D01*
Y103937D01*
X373539D02*
X378461D01*
X373539Y96063D02*
Y103937D01*
X426031Y98984D02*
X429969D01*
Y97016D02*
Y98984D01*
X426031Y97016D02*
X429969D01*
X426031D02*
Y98984D01*
X408653Y98134D02*
X413378D01*
Y89866D02*
Y98134D01*
X408653Y89866D02*
X413378D01*
X408653D02*
Y98134D01*
Y96165D02*
X410622Y98134D01*
X186063Y339539D02*
X193937D01*
X186063D02*
Y344461D01*
X193937D01*
Y339539D02*
Y344461D01*
X171016Y351969D02*
X172984D01*
X171016Y348031D02*
Y351969D01*
Y348031D02*
X172984D01*
Y351969D01*
X208032Y359016D02*
Y360984D01*
Y359016D02*
X211968D01*
Y360984D01*
X208032D02*
X211968D01*
X286032Y361016D02*
Y362984D01*
Y361016D02*
X289968D01*
Y362984D01*
X286032D02*
X289968D01*
X249016Y353969D02*
X250984D01*
X249016Y350031D02*
Y353969D01*
Y350031D02*
X250984D01*
Y353969D01*
X264063Y341539D02*
X271937D01*
X264063D02*
Y346461D01*
X271937D01*
Y341539D02*
Y346461D01*
X425866Y50984D02*
X429803D01*
Y49016D02*
Y50984D01*
X425866Y49016D02*
X429803D01*
X425866D02*
Y50984D01*
D14*
X398811Y320599D02*
G03*
X398811Y320599I-787J0D01*
G01*
X47689Y356740D02*
G03*
X47689Y356740I-787J0D01*
G01*
Y160512D02*
G03*
X47689Y160512I-787J0D01*
G01*
D16*
X423496Y153236D02*
G03*
X423496Y153236I-31496J0D01*
G01*
X404283Y437390D02*
X444205D01*
Y264831D02*
Y437390D01*
X404283Y264831D02*
X444205D01*
Y437390D02*
X571843D01*
Y264831D02*
Y437390D01*
X444205Y264831D02*
X571843D01*
X404283D02*
Y437390D01*
X720Y239949D02*
X40642D01*
X720D02*
Y412508D01*
X40642D01*
X-126917Y239949D02*
X720D01*
X-126917D02*
Y412508D01*
X720D01*
X40642Y239949D02*
Y412508D01*
X720Y43720D02*
X40642D01*
X720D02*
Y216280D01*
X40642D01*
X-126917Y43720D02*
X720D01*
X-126917D02*
Y216280D01*
X720D01*
X40642Y43720D02*
Y216280D01*
M02*
