G04*
G04 #@! TF.GenerationSoftware,Altium Limited,Altium Designer,20.0.9 (164)*
G04*
G04 Layer_Physical_Order=2*
G04 Layer_Color=16711680*
%FSLAX25Y25*%
%MOIN*%
G70*
G01*
G75*
%ADD11C,0.01000*%
%ADD230C,0.02500*%
%ADD232C,0.05000*%
%ADD233C,0.04000*%
%ADD234R,0.04724X0.04724*%
%ADD235C,0.04724*%
%ADD236C,0.16500*%
%ADD237R,0.07972X0.07972*%
%ADD238C,0.07972*%
%ADD239C,0.05906*%
%ADD240R,0.05906X0.05906*%
%ADD241R,0.06299X0.06299*%
%ADD242C,0.06299*%
%ADD243C,0.09449*%
%ADD244C,0.05118*%
%ADD245C,0.15748*%
%ADD246C,0.08858*%
%ADD247R,0.08858X0.08858*%
%ADD248R,0.06732X0.06732*%
%ADD249C,0.06732*%
%ADD250C,0.09646*%
%ADD251C,0.07087*%
%ADD252R,0.05906X0.05906*%
%ADD253C,0.05512*%
%ADD254C,0.05000*%
G36*
X419645Y462116D02*
X420000Y461969D01*
Y442000D01*
X442471D01*
Y24000D01*
X422000D01*
Y1529D01*
X24000D01*
Y22000D01*
X1529D01*
Y204000D01*
X142000Y204000D01*
Y334000D01*
Y414000D01*
X1529D01*
Y440000D01*
X28000D01*
X27859Y440141D01*
Y462116D01*
X419645D01*
D02*
G37*
%LPC*%
G36*
X296000Y443788D02*
X295020Y443659D01*
X294106Y443281D01*
X293321Y442679D01*
X292719Y441894D01*
X292341Y440980D01*
X292212Y440000D01*
X292341Y439019D01*
X292719Y438106D01*
X293321Y437321D01*
X294106Y436719D01*
X295020Y436341D01*
X296000Y436212D01*
X296981Y436341D01*
X297894Y436719D01*
X298679Y437321D01*
X299281Y438106D01*
X299659Y439019D01*
X299788Y440000D01*
X299659Y440980D01*
X299281Y441894D01*
X298679Y442679D01*
X297894Y443281D01*
X296981Y443659D01*
X296000Y443788D01*
D02*
G37*
G36*
X240000D02*
X239019Y443659D01*
X238106Y443281D01*
X237321Y442679D01*
X236719Y441894D01*
X236341Y440980D01*
X236212Y440000D01*
X236341Y439019D01*
X236719Y438106D01*
X237321Y437321D01*
X238106Y436719D01*
X239019Y436341D01*
X240000Y436212D01*
X240981Y436341D01*
X241894Y436719D01*
X242679Y437321D01*
X243281Y438106D01*
X243659Y439019D01*
X243788Y440000D01*
X243659Y440980D01*
X243281Y441894D01*
X242679Y442679D01*
X241894Y443281D01*
X240981Y443659D01*
X240000Y443788D01*
D02*
G37*
G36*
X216000D02*
X215019Y443659D01*
X214106Y443281D01*
X213321Y442679D01*
X212719Y441894D01*
X212341Y440980D01*
X212212Y440000D01*
X212341Y439019D01*
X212719Y438106D01*
X213321Y437321D01*
X214106Y436719D01*
X215019Y436341D01*
X216000Y436212D01*
X216981Y436341D01*
X217894Y436719D01*
X218679Y437321D01*
X219281Y438106D01*
X219659Y439019D01*
X219788Y440000D01*
X219659Y440980D01*
X219281Y441894D01*
X218679Y442679D01*
X217894Y443281D01*
X216981Y443659D01*
X216000Y443788D01*
D02*
G37*
G36*
X160000D02*
X159019Y443659D01*
X158106Y443281D01*
X157321Y442679D01*
X156719Y441894D01*
X156341Y440980D01*
X156212Y440000D01*
X156341Y439019D01*
X156719Y438106D01*
X157321Y437321D01*
X158106Y436719D01*
X159019Y436341D01*
X160000Y436212D01*
X160980Y436341D01*
X161894Y436719D01*
X162679Y437321D01*
X163281Y438106D01*
X163659Y439019D01*
X163788Y440000D01*
X163659Y440980D01*
X163281Y441894D01*
X162679Y442679D01*
X161894Y443281D01*
X160980Y443659D01*
X160000Y443788D01*
D02*
G37*
G36*
X282366Y444366D02*
X273634D01*
Y435634D01*
X282366D01*
Y444366D01*
D02*
G37*
G36*
X202366D02*
X193634D01*
Y435634D01*
X202366D01*
Y444366D01*
D02*
G37*
G36*
X258000Y444404D02*
X256860Y444254D01*
X255798Y443814D01*
X254886Y443114D01*
X254186Y442202D01*
X253746Y441140D01*
X253596Y440000D01*
X253746Y438860D01*
X254186Y437798D01*
X254886Y436886D01*
X255798Y436186D01*
X256860Y435746D01*
X258000Y435596D01*
X259140Y435746D01*
X260202Y436186D01*
X261114Y436886D01*
X261814Y437798D01*
X262254Y438860D01*
X262404Y440000D01*
X262254Y441140D01*
X261814Y442202D01*
X261114Y443114D01*
X260202Y443814D01*
X259140Y444254D01*
X258000Y444404D01*
D02*
G37*
G36*
X178000D02*
X176860Y444254D01*
X175798Y443814D01*
X174886Y443114D01*
X174186Y442202D01*
X173746Y441140D01*
X173596Y440000D01*
X173746Y438860D01*
X174186Y437798D01*
X174886Y436886D01*
X175798Y436186D01*
X176860Y435746D01*
X178000Y435596D01*
X179140Y435746D01*
X180202Y436186D01*
X181114Y436886D01*
X181814Y437798D01*
X182254Y438860D01*
X182404Y440000D01*
X182254Y441140D01*
X181814Y442202D01*
X181114Y443114D01*
X180202Y443814D01*
X179140Y444254D01*
X178000Y444404D01*
D02*
G37*
G36*
X388693Y432290D02*
X387198Y432093D01*
X385806Y431516D01*
X384610Y430598D01*
X383693Y429403D01*
X383116Y428010D01*
X382919Y426516D01*
X383116Y425021D01*
X383693Y423629D01*
X384610Y422433D01*
X385806Y421516D01*
X387198Y420939D01*
X388693Y420742D01*
X390187Y420939D01*
X391580Y421516D01*
X392776Y422433D01*
X393693Y423629D01*
X394270Y425021D01*
X394467Y426516D01*
X394270Y428010D01*
X393693Y429403D01*
X392776Y430598D01*
X391580Y431516D01*
X390187Y432093D01*
X388693Y432290D01*
D02*
G37*
G36*
X375307D02*
X373813Y432093D01*
X372420Y431516D01*
X371224Y430598D01*
X370307Y429403D01*
X369730Y428010D01*
X369533Y426516D01*
X369730Y425021D01*
X370307Y423629D01*
X371224Y422433D01*
X372420Y421516D01*
X373813Y420939D01*
X375307Y420742D01*
X376801Y420939D01*
X378194Y421516D01*
X379390Y422433D01*
X380307Y423629D01*
X380884Y425021D01*
X381081Y426516D01*
X380884Y428010D01*
X380307Y429403D01*
X379390Y430598D01*
X378194Y431516D01*
X376801Y432093D01*
X375307Y432290D01*
D02*
G37*
G36*
X296000Y403788D02*
X295020Y403659D01*
X294106Y403281D01*
X293321Y402679D01*
X292719Y401894D01*
X292341Y400981D01*
X292212Y400000D01*
X292341Y399020D01*
X292719Y398106D01*
X293321Y397321D01*
X294106Y396719D01*
X295020Y396341D01*
X296000Y396212D01*
X296981Y396341D01*
X297894Y396719D01*
X298679Y397321D01*
X299281Y398106D01*
X299659Y399020D01*
X299788Y400000D01*
X299659Y400981D01*
X299281Y401894D01*
X298679Y402679D01*
X297894Y403281D01*
X296981Y403659D01*
X296000Y403788D01*
D02*
G37*
G36*
X240000D02*
X239019Y403659D01*
X238106Y403281D01*
X237321Y402679D01*
X236719Y401894D01*
X236341Y400981D01*
X236212Y400000D01*
X236341Y399020D01*
X236719Y398106D01*
X237321Y397321D01*
X238106Y396719D01*
X239019Y396341D01*
X240000Y396212D01*
X240981Y396341D01*
X241894Y396719D01*
X242679Y397321D01*
X243281Y398106D01*
X243659Y399020D01*
X243788Y400000D01*
X243659Y400981D01*
X243281Y401894D01*
X242679Y402679D01*
X241894Y403281D01*
X240981Y403659D01*
X240000Y403788D01*
D02*
G37*
G36*
X216000D02*
X215019Y403659D01*
X214106Y403281D01*
X213321Y402679D01*
X212719Y401894D01*
X212341Y400981D01*
X212212Y400000D01*
X212341Y399020D01*
X212719Y398106D01*
X213321Y397321D01*
X214106Y396719D01*
X215019Y396341D01*
X216000Y396212D01*
X216981Y396341D01*
X217894Y396719D01*
X218679Y397321D01*
X219281Y398106D01*
X219659Y399020D01*
X219788Y400000D01*
X219659Y400981D01*
X219281Y401894D01*
X218679Y402679D01*
X217894Y403281D01*
X216981Y403659D01*
X216000Y403788D01*
D02*
G37*
G36*
X160000D02*
X159019Y403659D01*
X158106Y403281D01*
X157321Y402679D01*
X156719Y401894D01*
X156341Y400981D01*
X156212Y400000D01*
X156341Y399020D01*
X156719Y398106D01*
X157321Y397321D01*
X158106Y396719D01*
X159019Y396341D01*
X160000Y396212D01*
X160980Y396341D01*
X161894Y396719D01*
X162679Y397321D01*
X163281Y398106D01*
X163659Y399020D01*
X163788Y400000D01*
X163659Y400981D01*
X163281Y401894D01*
X162679Y402679D01*
X161894Y403281D01*
X160980Y403659D01*
X160000Y403788D01*
D02*
G37*
G36*
X344000Y397530D02*
X343086Y397410D01*
X342235Y397057D01*
X341504Y396496D01*
X340943Y395765D01*
X340845Y395529D01*
X324000D01*
X323415Y395413D01*
X322919Y395081D01*
X306919Y379081D01*
X306587Y378585D01*
X306471Y378000D01*
Y350634D01*
X164919Y209081D01*
X164587Y208585D01*
X164471Y208000D01*
Y163081D01*
X164022Y162860D01*
X163765Y163057D01*
X162914Y163410D01*
X162000Y163530D01*
X161086Y163410D01*
X160235Y163057D01*
X159504Y162496D01*
X158943Y161765D01*
X158590Y160914D01*
X158470Y160000D01*
X158590Y159086D01*
X158943Y158235D01*
X159504Y157504D01*
X160235Y156943D01*
X160471Y156845D01*
Y62000D01*
X160587Y61415D01*
X160919Y60919D01*
X184688Y37149D01*
X184590Y36914D01*
X184470Y36000D01*
X184590Y35086D01*
X184943Y34235D01*
X185504Y33504D01*
X186235Y32943D01*
X187086Y32590D01*
X188000Y32470D01*
X188914Y32590D01*
X189765Y32943D01*
X190496Y33504D01*
X191057Y34235D01*
X191410Y35086D01*
X191530Y36000D01*
X191410Y36914D01*
X191057Y37765D01*
X190496Y38496D01*
X189765Y39057D01*
X188914Y39410D01*
X188000Y39530D01*
X187086Y39410D01*
X186851Y39312D01*
X163529Y62634D01*
Y156845D01*
X163765Y156943D01*
X164022Y157140D01*
X164471Y156919D01*
Y66000D01*
X164587Y65415D01*
X164919Y64919D01*
X192688Y37149D01*
X192590Y36914D01*
X192470Y36000D01*
X192590Y35086D01*
X192943Y34235D01*
X193504Y33504D01*
X194235Y32943D01*
X195086Y32590D01*
X196000Y32470D01*
X196914Y32590D01*
X197765Y32943D01*
X198496Y33504D01*
X199057Y34235D01*
X199410Y35086D01*
X199530Y36000D01*
X199410Y36914D01*
X199057Y37765D01*
X198496Y38496D01*
X197765Y39057D01*
X196914Y39410D01*
X196000Y39530D01*
X195086Y39410D01*
X194851Y39312D01*
X167529Y66633D01*
Y207366D01*
X309081Y348919D01*
X309413Y349415D01*
X309529Y350000D01*
Y377366D01*
X321989Y389826D01*
X322516Y389646D01*
X322590Y389086D01*
X322943Y388235D01*
X323504Y387504D01*
X324235Y386943D01*
X324471Y386845D01*
Y359081D01*
X324022Y358860D01*
X323765Y359057D01*
X322914Y359410D01*
X322000Y359530D01*
X321086Y359410D01*
X320235Y359057D01*
X319504Y358496D01*
X318943Y357765D01*
X318590Y356914D01*
X318470Y356000D01*
X318590Y355086D01*
X318688Y354851D01*
X170919Y207081D01*
X170587Y206585D01*
X170471Y206000D01*
X170471Y76000D01*
X170587Y75415D01*
X170919Y74919D01*
X214440Y31397D01*
X214560Y31317D01*
X214590Y31086D01*
X214943Y30235D01*
X215504Y29504D01*
X216235Y28943D01*
X217086Y28590D01*
X218000Y28470D01*
X218914Y28590D01*
X219149Y28688D01*
X224919Y22919D01*
X225415Y22587D01*
X226000Y22471D01*
X249993D01*
X250122Y21971D01*
X249504Y21496D01*
X248943Y20765D01*
X248845Y20529D01*
X203386D01*
X196834Y27081D01*
X196338Y27413D01*
X195753Y27529D01*
X105847D01*
X105518Y27905D01*
X105530Y28000D01*
X105410Y28914D01*
X105057Y29765D01*
X104496Y30496D01*
X103765Y31057D01*
X102914Y31410D01*
X102000Y31530D01*
X101086Y31410D01*
X100235Y31057D01*
X99504Y30496D01*
X98943Y29765D01*
X98590Y28914D01*
X98470Y28000D01*
X98590Y27086D01*
X98943Y26235D01*
X99504Y25504D01*
X100235Y24943D01*
X101086Y24590D01*
X102000Y24470D01*
X102914Y24590D01*
X103582Y24867D01*
X104000Y24587D01*
X104586Y24471D01*
X195119D01*
X201671Y17919D01*
X202167Y17587D01*
X202752Y17471D01*
X248845D01*
X248943Y17235D01*
X249504Y16504D01*
X250235Y15943D01*
X251086Y15590D01*
X252000Y15470D01*
X252914Y15590D01*
X253765Y15943D01*
X254496Y16504D01*
X255057Y17235D01*
X255410Y18086D01*
X255452Y18408D01*
X255926Y18568D01*
X264534Y9960D01*
X264149Y9032D01*
X264013Y8000D01*
X264149Y6968D01*
X264547Y6007D01*
X265181Y5181D01*
X266007Y4547D01*
X266968Y4149D01*
X268000Y4013D01*
X269032Y4149D01*
X269993Y4547D01*
X270819Y5181D01*
X271453Y6007D01*
X271851Y6968D01*
X271987Y8000D01*
X271851Y9032D01*
X271453Y9993D01*
X270819Y10819D01*
X269993Y11453D01*
X269032Y11851D01*
X268000Y11987D01*
X266969Y11851D01*
X253738Y25081D01*
X253242Y25413D01*
X252657Y25529D01*
X226634D01*
X221312Y30851D01*
X221410Y31086D01*
X221530Y32000D01*
X221410Y32914D01*
X221057Y33765D01*
X220496Y34496D01*
X219765Y35057D01*
X218914Y35410D01*
X218000Y35530D01*
X217086Y35410D01*
X216235Y35057D01*
X215596Y34567D01*
X173529Y76634D01*
X173529Y205366D01*
X320851Y352688D01*
X321086Y352590D01*
X322000Y352470D01*
X322914Y352590D01*
X323765Y352943D01*
X324022Y353140D01*
X324471Y352919D01*
Y326000D01*
X324587Y325415D01*
X324919Y324919D01*
X380471Y269367D01*
Y239155D01*
X380235Y239057D01*
X379504Y238496D01*
X378943Y237765D01*
X378590Y236914D01*
X378470Y236000D01*
X378590Y235086D01*
X378943Y234235D01*
X379504Y233504D01*
X380235Y232943D01*
X380471Y232845D01*
Y194000D01*
X380587Y193415D01*
X380919Y192919D01*
X386100Y187738D01*
X400471Y173366D01*
Y117155D01*
X400235Y117057D01*
X399504Y116496D01*
X398943Y115765D01*
X398590Y114914D01*
X398470Y114000D01*
X398590Y113086D01*
X398943Y112235D01*
X399504Y111504D01*
X400235Y110943D01*
X401086Y110590D01*
X402000Y110470D01*
X402914Y110590D01*
X403765Y110943D01*
X404496Y111504D01*
X405057Y112235D01*
X405410Y113086D01*
X405530Y114000D01*
X405410Y114914D01*
X405057Y115765D01*
X404496Y116496D01*
X403765Y117057D01*
X403529Y117155D01*
Y174000D01*
X403413Y174585D01*
X403081Y175081D01*
X388263Y189900D01*
X383529Y194633D01*
Y232845D01*
X383765Y232943D01*
X384496Y233504D01*
X385057Y234235D01*
X385410Y235086D01*
X385530Y236000D01*
X385410Y236914D01*
X385057Y237765D01*
X384496Y238496D01*
X383765Y239057D01*
X383529Y239155D01*
Y270000D01*
X383413Y270585D01*
X383081Y271081D01*
X371943Y282220D01*
X372273Y282597D01*
X372420Y282484D01*
X373813Y281907D01*
X375307Y281710D01*
X376801Y281907D01*
X378194Y282484D01*
X379390Y283401D01*
X380307Y284597D01*
X380884Y285990D01*
X381081Y287484D01*
X380884Y288979D01*
X380307Y290371D01*
X379390Y291567D01*
X378194Y292484D01*
X376801Y293061D01*
X375307Y293258D01*
X373813Y293061D01*
X372420Y292484D01*
X371224Y291567D01*
X370307Y290371D01*
X369730Y288979D01*
X369533Y287484D01*
X369730Y285990D01*
X370307Y284597D01*
X370420Y284451D01*
X370043Y284120D01*
X327529Y326634D01*
Y386845D01*
X327765Y386943D01*
X328496Y387504D01*
X329057Y388235D01*
X329410Y389086D01*
X329530Y390000D01*
X329410Y390914D01*
X329057Y391765D01*
X328860Y392022D01*
X329081Y392471D01*
X340845D01*
X340943Y392235D01*
X341504Y391504D01*
X342235Y390943D01*
X343086Y390590D01*
X344000Y390470D01*
X344914Y390590D01*
X345765Y390943D01*
X346496Y391504D01*
X347057Y392235D01*
X347410Y393086D01*
X347530Y394000D01*
X347410Y394914D01*
X347057Y395765D01*
X346496Y396496D01*
X345765Y397057D01*
X344914Y397410D01*
X344000Y397530D01*
D02*
G37*
G36*
X417906Y408255D02*
X416166Y408084D01*
X414493Y407577D01*
X412952Y406753D01*
X411600Y405644D01*
X410491Y404293D01*
X409667Y402751D01*
X409160Y401078D01*
X408989Y399339D01*
X409160Y397599D01*
X409667Y395926D01*
X410491Y394385D01*
X411600Y393033D01*
X412952Y391924D01*
X414493Y391100D01*
X416166Y390593D01*
X417906Y390422D01*
X419645Y390593D01*
X421318Y391100D01*
X422860Y391924D01*
X424211Y393033D01*
X425320Y394385D01*
X426144Y395926D01*
X426651Y397599D01*
X426823Y399339D01*
X426651Y401078D01*
X426144Y402751D01*
X425320Y404293D01*
X424211Y405644D01*
X422860Y406753D01*
X421318Y407577D01*
X419645Y408084D01*
X417906Y408255D01*
D02*
G37*
G36*
X268000Y391029D02*
X266698Y390858D01*
X265485Y390355D01*
X264444Y389556D01*
X263645Y388515D01*
X263271Y387612D01*
X262729D01*
X262355Y388515D01*
X261556Y389556D01*
X260515Y390355D01*
X259302Y390858D01*
X258000Y391029D01*
X256698Y390858D01*
X255485Y390355D01*
X254444Y389556D01*
X253644Y388515D01*
X253142Y387302D01*
X252971Y386000D01*
X253142Y384698D01*
X253644Y383485D01*
X254444Y382444D01*
X255485Y381645D01*
X256698Y381142D01*
X258000Y380971D01*
X259302Y381142D01*
X260515Y381645D01*
X261556Y382444D01*
X262355Y383485D01*
X262729Y384388D01*
X263271D01*
X263645Y383485D01*
X264444Y382444D01*
X265485Y381645D01*
X266698Y381142D01*
X268000Y380971D01*
X269302Y381142D01*
X270515Y381645D01*
X271556Y382444D01*
X272356Y383485D01*
X272514Y383868D01*
X273014Y383768D01*
Y381014D01*
X282986D01*
Y390986D01*
X273014D01*
Y388232D01*
X272514Y388132D01*
X272356Y388515D01*
X271556Y389556D01*
X270515Y390355D01*
X269302Y390858D01*
X268000Y391029D01*
D02*
G37*
G36*
X190000D02*
X188698Y390858D01*
X187485Y390355D01*
X186444Y389556D01*
X185644Y388515D01*
X185271Y387612D01*
X184729D01*
X184355Y388515D01*
X183556Y389556D01*
X182515Y390355D01*
X181302Y390858D01*
X180000Y391029D01*
X178698Y390858D01*
X177485Y390355D01*
X176444Y389556D01*
X175645Y388515D01*
X175142Y387302D01*
X174971Y386000D01*
X175142Y384698D01*
X175645Y383485D01*
X176444Y382444D01*
X177485Y381645D01*
X178698Y381142D01*
X180000Y380971D01*
X181302Y381142D01*
X182515Y381645D01*
X183556Y382444D01*
X184355Y383485D01*
X184729Y384388D01*
X185271D01*
X185644Y383485D01*
X186444Y382444D01*
X187485Y381645D01*
X188698Y381142D01*
X190000Y380971D01*
X191302Y381142D01*
X192515Y381645D01*
X193556Y382444D01*
X194355Y383485D01*
X194514Y383868D01*
X195014Y383768D01*
Y381014D01*
X204986D01*
Y390986D01*
X195014D01*
Y388232D01*
X194514Y388132D01*
X194355Y388515D01*
X193556Y389556D01*
X192515Y390355D01*
X191302Y390858D01*
X190000Y391029D01*
D02*
G37*
G36*
X388693Y379258D02*
X387198Y379061D01*
X385806Y378485D01*
X384610Y377567D01*
X383693Y376371D01*
X383116Y374979D01*
X382919Y373484D01*
X383116Y371990D01*
X383693Y370597D01*
X384610Y369402D01*
X385806Y368484D01*
X387198Y367907D01*
X388693Y367710D01*
X390187Y367907D01*
X391580Y368484D01*
X392776Y369402D01*
X393693Y370597D01*
X394270Y371990D01*
X394467Y373484D01*
X394270Y374979D01*
X393693Y376371D01*
X392776Y377567D01*
X391580Y378485D01*
X390187Y379061D01*
X388693Y379258D01*
D02*
G37*
G36*
X375307D02*
X373813Y379061D01*
X372420Y378485D01*
X371224Y377567D01*
X370307Y376371D01*
X369730Y374979D01*
X369533Y373484D01*
X369730Y371990D01*
X370307Y370597D01*
X371224Y369402D01*
X372420Y368484D01*
X373813Y367907D01*
X375307Y367710D01*
X376801Y367907D01*
X378194Y368484D01*
X379390Y369402D01*
X380307Y370597D01*
X380884Y371990D01*
X381081Y373484D01*
X380884Y374979D01*
X380307Y376371D01*
X379390Y377567D01*
X378194Y378485D01*
X376801Y379061D01*
X375307Y379258D01*
D02*
G37*
G36*
X422000Y377256D02*
X420583Y377069D01*
X419262Y376522D01*
X418128Y375652D01*
X417258Y374518D01*
X416711Y373197D01*
X416524Y371780D01*
X416711Y370362D01*
X417258Y369042D01*
X418128Y367908D01*
X419262Y367037D01*
X420583Y366490D01*
X422000Y366304D01*
X423417Y366490D01*
X424738Y367037D01*
X425872Y367908D01*
X426742Y369042D01*
X427289Y370362D01*
X427476Y371780D01*
X427289Y373197D01*
X426742Y374518D01*
X425872Y375652D01*
X424738Y376522D01*
X423417Y377069D01*
X422000Y377256D01*
D02*
G37*
G36*
X408220D02*
X406803Y377069D01*
X405482Y376522D01*
X404348Y375652D01*
X403478Y374518D01*
X402931Y373197D01*
X402744Y371780D01*
X402931Y370362D01*
X403478Y369042D01*
X404348Y367908D01*
X405482Y367037D01*
X406803Y366490D01*
X408220Y366304D01*
X409638Y366490D01*
X410958Y367037D01*
X412092Y367908D01*
X412963Y369042D01*
X413510Y370362D01*
X413696Y371780D01*
X413510Y373197D01*
X412963Y374518D01*
X412092Y375652D01*
X410958Y376522D01*
X409638Y377069D01*
X408220Y377256D01*
D02*
G37*
G36*
X422500Y363410D02*
Y358500D01*
X427410D01*
X427289Y359417D01*
X426742Y360738D01*
X425872Y361872D01*
X424738Y362742D01*
X423417Y363289D01*
X422500Y363410D01*
D02*
G37*
G36*
X408720D02*
Y358500D01*
X413631D01*
X413510Y359417D01*
X412963Y360738D01*
X412092Y361872D01*
X410958Y362742D01*
X409638Y363289D01*
X408720Y363410D01*
D02*
G37*
G36*
X421500D02*
X420583Y363289D01*
X419262Y362742D01*
X418128Y361872D01*
X417258Y360738D01*
X416711Y359417D01*
X416590Y358500D01*
X421500D01*
Y363410D01*
D02*
G37*
G36*
X407720D02*
X406803Y363289D01*
X405482Y362742D01*
X404348Y361872D01*
X403478Y360738D01*
X402931Y359417D01*
X402810Y358500D01*
X407720D01*
Y363410D01*
D02*
G37*
G36*
X413631Y357500D02*
X408720D01*
Y352590D01*
X409638Y352711D01*
X410958Y353258D01*
X412092Y354128D01*
X412963Y355262D01*
X413510Y356583D01*
X413631Y357500D01*
D02*
G37*
G36*
X427410D02*
X422500D01*
Y352590D01*
X423417Y352711D01*
X424738Y353258D01*
X425872Y354128D01*
X426742Y355262D01*
X427289Y356583D01*
X427410Y357500D01*
D02*
G37*
G36*
X421500D02*
X416590D01*
X416711Y356583D01*
X417258Y355262D01*
X418128Y354128D01*
X419262Y353258D01*
X420583Y352711D01*
X421500Y352590D01*
Y357500D01*
D02*
G37*
G36*
X407720D02*
X402810D01*
X402931Y356583D01*
X403478Y355262D01*
X404348Y354128D01*
X405482Y353258D01*
X406803Y352711D01*
X407720Y352590D01*
Y357500D01*
D02*
G37*
G36*
X422000Y349697D02*
X420583Y349510D01*
X419262Y348963D01*
X418128Y348093D01*
X417258Y346959D01*
X416711Y345638D01*
X416524Y344221D01*
X416711Y342803D01*
X417258Y341483D01*
X418128Y340349D01*
X419262Y339478D01*
X420583Y338931D01*
X422000Y338745D01*
X423417Y338931D01*
X424738Y339478D01*
X425872Y340349D01*
X426742Y341483D01*
X427289Y342803D01*
X427476Y344221D01*
X427289Y345638D01*
X426742Y346959D01*
X425872Y348093D01*
X424738Y348963D01*
X423417Y349510D01*
X422000Y349697D01*
D02*
G37*
G36*
X408220D02*
X406803Y349510D01*
X405482Y348963D01*
X404348Y348093D01*
X403478Y346959D01*
X402931Y345638D01*
X402744Y344221D01*
X402931Y342803D01*
X403478Y341483D01*
X404348Y340349D01*
X405482Y339478D01*
X406803Y338931D01*
X408220Y338745D01*
X409638Y338931D01*
X410958Y339478D01*
X412092Y340349D01*
X412963Y341483D01*
X413510Y342803D01*
X413696Y344221D01*
X413510Y345638D01*
X412963Y346959D01*
X412092Y348093D01*
X410958Y348963D01*
X409638Y349510D01*
X408220Y349697D01*
D02*
G37*
G36*
X388693Y346290D02*
X387198Y346093D01*
X385806Y345516D01*
X384610Y344599D01*
X383693Y343403D01*
X383116Y342010D01*
X382919Y340516D01*
X383116Y339021D01*
X383693Y337629D01*
X384610Y336433D01*
X385806Y335515D01*
X387198Y334939D01*
X388693Y334742D01*
X390187Y334939D01*
X391580Y335515D01*
X392776Y336433D01*
X393693Y337629D01*
X394270Y339021D01*
X394467Y340516D01*
X394270Y342010D01*
X393693Y343403D01*
X392776Y344599D01*
X391580Y345516D01*
X390187Y346093D01*
X388693Y346290D01*
D02*
G37*
G36*
X375307D02*
X373813Y346093D01*
X372420Y345516D01*
X371224Y344599D01*
X370307Y343403D01*
X369730Y342010D01*
X369533Y340516D01*
X369730Y339021D01*
X370307Y337629D01*
X371224Y336433D01*
X372420Y335515D01*
X373813Y334939D01*
X375307Y334742D01*
X376801Y334939D01*
X378194Y335515D01*
X379390Y336433D01*
X380307Y337629D01*
X380884Y339021D01*
X381081Y340516D01*
X380884Y342010D01*
X380307Y343403D01*
X379390Y344599D01*
X378194Y345516D01*
X376801Y346093D01*
X375307Y346290D01*
D02*
G37*
G36*
X413650Y335870D02*
X402791D01*
Y325012D01*
X413650D01*
Y335870D01*
D02*
G37*
G36*
X422000Y335917D02*
X420583Y335730D01*
X419262Y335183D01*
X418128Y334313D01*
X417258Y333179D01*
X416711Y331858D01*
X416524Y330441D01*
X416711Y329024D01*
X417258Y327703D01*
X418128Y326569D01*
X419262Y325699D01*
X420583Y325152D01*
X422000Y324965D01*
X423417Y325152D01*
X424738Y325699D01*
X425872Y326569D01*
X426742Y327703D01*
X427289Y329024D01*
X427476Y330441D01*
X427289Y331858D01*
X426742Y333179D01*
X425872Y334313D01*
X424738Y335183D01*
X423417Y335730D01*
X422000Y335917D01*
D02*
G37*
G36*
X417906Y311799D02*
X416166Y311628D01*
X414493Y311120D01*
X412952Y310296D01*
X411600Y309187D01*
X410491Y307836D01*
X409667Y306294D01*
X409160Y304622D01*
X408989Y302882D01*
X409160Y301142D01*
X409667Y299470D01*
X410491Y297928D01*
X411600Y296577D01*
X412952Y295468D01*
X414493Y294644D01*
X416166Y294136D01*
X417906Y293965D01*
X419645Y294136D01*
X421318Y294644D01*
X422860Y295468D01*
X424211Y296577D01*
X425320Y297928D01*
X426144Y299470D01*
X426651Y301142D01*
X426823Y302882D01*
X426651Y304622D01*
X426144Y306294D01*
X425320Y307836D01*
X424211Y309187D01*
X422860Y310296D01*
X421318Y311120D01*
X419645Y311628D01*
X417906Y311799D01*
D02*
G37*
G36*
X388693Y293258D02*
X387198Y293061D01*
X385806Y292484D01*
X384610Y291567D01*
X383693Y290371D01*
X383116Y288979D01*
X382919Y287484D01*
X383116Y285990D01*
X383693Y284597D01*
X384610Y283401D01*
X385806Y282484D01*
X387198Y281907D01*
X388693Y281710D01*
X390187Y281907D01*
X391580Y282484D01*
X392776Y283401D01*
X393693Y284597D01*
X394270Y285990D01*
X394467Y287484D01*
X394270Y288979D01*
X393693Y290371D01*
X392776Y291567D01*
X391580Y292484D01*
X390187Y293061D01*
X388693Y293258D01*
D02*
G37*
G36*
X314000Y275851D02*
X312859Y275739D01*
X311761Y275406D01*
X310749Y274865D01*
X309863Y274137D01*
X309135Y273251D01*
X308594Y272239D01*
X308261Y271142D01*
X308149Y270000D01*
X308261Y268859D01*
X308594Y267761D01*
X309135Y266749D01*
X309863Y265863D01*
X310749Y265135D01*
X311761Y264594D01*
X312859Y264261D01*
X314000Y264149D01*
X315142Y264261D01*
X316239Y264594D01*
X317251Y265135D01*
X318137Y265863D01*
X318865Y266749D01*
X319406Y267761D01*
X319739Y268859D01*
X319851Y270000D01*
X319739Y271142D01*
X319406Y272239D01*
X318865Y273251D01*
X318137Y274137D01*
X317251Y274865D01*
X316239Y275406D01*
X315142Y275739D01*
X314000Y275851D01*
D02*
G37*
G36*
Y259582D02*
X312814Y259426D01*
X311709Y258969D01*
X310760Y258240D01*
X310031Y257291D01*
X309574Y256186D01*
X309418Y255000D01*
X309574Y253814D01*
X310031Y252709D01*
X310760Y251760D01*
X311709Y251031D01*
X312814Y250574D01*
X314000Y250417D01*
X315186Y250574D01*
X316291Y251031D01*
X317240Y251760D01*
X317969Y252709D01*
X318426Y253814D01*
X318583Y255000D01*
X318426Y256186D01*
X317969Y257291D01*
X317240Y258240D01*
X316291Y258969D01*
X315186Y259426D01*
X314000Y259582D01*
D02*
G37*
G36*
Y244583D02*
X312814Y244426D01*
X311709Y243969D01*
X310760Y243240D01*
X310031Y242291D01*
X309574Y241186D01*
X309418Y240000D01*
X309574Y238814D01*
X310031Y237709D01*
X310760Y236760D01*
X311709Y236031D01*
X312814Y235574D01*
X314000Y235418D01*
X315186Y235574D01*
X316291Y236031D01*
X317240Y236760D01*
X317969Y237709D01*
X318426Y238814D01*
X318583Y240000D01*
X318426Y241186D01*
X317969Y242291D01*
X317240Y243240D01*
X316291Y243969D01*
X315186Y244426D01*
X314000Y244583D01*
D02*
G37*
G36*
X314500Y229517D02*
Y225500D01*
X318517D01*
X318426Y226186D01*
X317969Y227291D01*
X317240Y228240D01*
X316291Y228969D01*
X315186Y229426D01*
X314500Y229517D01*
D02*
G37*
G36*
X313500D02*
X312814Y229426D01*
X311709Y228969D01*
X310760Y228240D01*
X310031Y227291D01*
X309574Y226186D01*
X309483Y225500D01*
X313500D01*
Y229517D01*
D02*
G37*
G36*
X318517Y224500D02*
X314500D01*
Y220483D01*
X315186Y220574D01*
X316291Y221031D01*
X317240Y221760D01*
X317969Y222709D01*
X318426Y223814D01*
X318517Y224500D01*
D02*
G37*
G36*
X313500D02*
X309483D01*
X309574Y223814D01*
X310031Y222709D01*
X310760Y221760D01*
X311709Y221031D01*
X312814Y220574D01*
X313500Y220483D01*
Y224500D01*
D02*
G37*
G36*
X314500Y215802D02*
Y210500D01*
X319802D01*
X319739Y211141D01*
X319406Y212239D01*
X318865Y213251D01*
X318137Y214137D01*
X317251Y214865D01*
X316239Y215406D01*
X315142Y215739D01*
X314500Y215802D01*
D02*
G37*
G36*
X313500D02*
X312859Y215739D01*
X311761Y215406D01*
X310749Y214865D01*
X309863Y214137D01*
X309135Y213251D01*
X308594Y212239D01*
X308261Y211141D01*
X308198Y210500D01*
X313500D01*
Y215802D01*
D02*
G37*
G36*
X426516Y216467D02*
X425021Y216270D01*
X423629Y215693D01*
X422433Y214776D01*
X421516Y213580D01*
X420939Y212187D01*
X420742Y210693D01*
X420939Y209198D01*
X421516Y207806D01*
X422433Y206610D01*
X423629Y205693D01*
X425021Y205116D01*
X426516Y204919D01*
X428010Y205116D01*
X429403Y205693D01*
X430598Y206610D01*
X431516Y207806D01*
X432093Y209198D01*
X432290Y210693D01*
X432093Y212187D01*
X431516Y213580D01*
X430598Y214776D01*
X429403Y215693D01*
X428010Y216270D01*
X426516Y216467D01*
D02*
G37*
G36*
X373484D02*
X371990Y216270D01*
X370597Y215693D01*
X369402Y214776D01*
X368484Y213580D01*
X367907Y212187D01*
X367710Y210693D01*
X367907Y209198D01*
X368484Y207806D01*
X369402Y206610D01*
X370597Y205693D01*
X371990Y205116D01*
X373484Y204919D01*
X374979Y205116D01*
X376371Y205693D01*
X377567Y206610D01*
X378485Y207806D01*
X379061Y209198D01*
X379258Y210693D01*
X379061Y212187D01*
X378485Y213580D01*
X377567Y214776D01*
X376371Y215693D01*
X374979Y216270D01*
X373484Y216467D01*
D02*
G37*
G36*
X319802Y209500D02*
X314500D01*
Y204198D01*
X315142Y204261D01*
X316239Y204594D01*
X317251Y205135D01*
X318137Y205863D01*
X318865Y206749D01*
X319406Y207761D01*
X319739Y208858D01*
X319802Y209500D01*
D02*
G37*
G36*
X313500D02*
X308198D01*
X308261Y208858D01*
X308594Y207761D01*
X309135Y206749D01*
X309863Y205863D01*
X310749Y205135D01*
X311761Y204594D01*
X312859Y204261D01*
X313500Y204198D01*
Y209500D01*
D02*
G37*
G36*
X426516Y203081D02*
X425021Y202884D01*
X423629Y202307D01*
X422433Y201390D01*
X421516Y200194D01*
X420939Y198802D01*
X420742Y197307D01*
X420939Y195813D01*
X421516Y194420D01*
X422433Y193224D01*
X423629Y192307D01*
X425021Y191730D01*
X426516Y191533D01*
X428010Y191730D01*
X429403Y192307D01*
X430598Y193224D01*
X431516Y194420D01*
X432093Y195813D01*
X432290Y197307D01*
X432093Y198802D01*
X431516Y200194D01*
X430598Y201390D01*
X429403Y202307D01*
X428010Y202884D01*
X426516Y203081D01*
D02*
G37*
G36*
X373484D02*
X371990Y202884D01*
X370597Y202307D01*
X369402Y201390D01*
X368484Y200194D01*
X367907Y198802D01*
X367710Y197307D01*
X367907Y195813D01*
X368484Y194420D01*
X369402Y193224D01*
X370597Y192307D01*
X371990Y191730D01*
X373484Y191533D01*
X374979Y191730D01*
X376371Y192307D01*
X377567Y193224D01*
X378485Y194420D01*
X379061Y195813D01*
X379258Y197307D01*
X379061Y198802D01*
X378485Y200194D01*
X377567Y201390D01*
X376371Y202307D01*
X374979Y202884D01*
X373484Y203081D01*
D02*
G37*
G36*
X27020Y187145D02*
X25280Y186974D01*
X23607Y186467D01*
X22066Y185643D01*
X20714Y184534D01*
X19605Y183182D01*
X18781Y181641D01*
X18274Y179968D01*
X18103Y178228D01*
X18274Y176489D01*
X18781Y174816D01*
X19605Y173274D01*
X20714Y171923D01*
X22066Y170814D01*
X23607Y169990D01*
X25280Y169483D01*
X27020Y169311D01*
X28759Y169483D01*
X30432Y169990D01*
X31974Y170814D01*
X33325Y171923D01*
X34434Y173274D01*
X35258Y174816D01*
X35765Y176489D01*
X35937Y178228D01*
X35765Y179968D01*
X35258Y181641D01*
X34434Y183182D01*
X33325Y184534D01*
X31974Y185643D01*
X30432Y186467D01*
X28759Y186974D01*
X27020Y187145D01*
D02*
G37*
G36*
X395953Y171953D02*
X388047D01*
Y164047D01*
X395953D01*
Y171953D01*
D02*
G37*
G36*
X314000Y291530D02*
X313086Y291410D01*
X312235Y291057D01*
X311504Y290496D01*
X311504Y290496D01*
X245504Y224496D01*
X245504Y224496D01*
X243573Y222565D01*
X243012Y221834D01*
X242659Y220983D01*
X242539Y220069D01*
Y164524D01*
X242470Y164000D01*
Y156000D01*
X242590Y155086D01*
X242943Y154235D01*
X243504Y153504D01*
X244235Y152943D01*
X245086Y152590D01*
X246000Y152470D01*
X246914Y152590D01*
X247765Y152943D01*
X248496Y153504D01*
X249057Y154235D01*
X249410Y155086D01*
X249530Y156000D01*
Y163545D01*
X249599Y164069D01*
Y218607D01*
X250496Y219504D01*
X250496Y219504D01*
X315462Y284470D01*
X356000D01*
X356914Y284590D01*
X357765Y284943D01*
X358496Y285504D01*
X359057Y286235D01*
X359410Y287086D01*
X359530Y288000D01*
X359410Y288914D01*
X359057Y289765D01*
X358496Y290496D01*
X357765Y291057D01*
X356914Y291410D01*
X356000Y291530D01*
X314000D01*
X314000Y291530D01*
D02*
G37*
G36*
X42134Y156098D02*
X31276D01*
Y145240D01*
X42134D01*
Y156098D01*
D02*
G37*
G36*
X22925Y156145D02*
X21508Y155959D01*
X20187Y155412D01*
X19053Y154541D01*
X18183Y153407D01*
X17636Y152087D01*
X17449Y150669D01*
X17636Y149252D01*
X18183Y147931D01*
X19053Y146797D01*
X20187Y145927D01*
X21508Y145380D01*
X22925Y145193D01*
X24342Y145380D01*
X25663Y145927D01*
X26797Y146797D01*
X27668Y147931D01*
X28215Y149252D01*
X28401Y150669D01*
X28215Y152087D01*
X27668Y153407D01*
X26797Y154541D01*
X25663Y155412D01*
X24342Y155959D01*
X22925Y156145D01*
D02*
G37*
G36*
X392500Y142393D02*
Y138972D01*
X395921D01*
X395851Y139504D01*
X395453Y140466D01*
X394819Y141291D01*
X393993Y141925D01*
X393032Y142323D01*
X392500Y142393D01*
D02*
G37*
G36*
X391500D02*
X390968Y142323D01*
X390007Y141925D01*
X389181Y141291D01*
X388547Y140466D01*
X388149Y139504D01*
X388079Y138972D01*
X391500D01*
Y142393D01*
D02*
G37*
G36*
X37205Y142300D02*
Y137390D01*
X42115D01*
X41994Y138307D01*
X41447Y139628D01*
X40577Y140762D01*
X39443Y141632D01*
X38122Y142179D01*
X37205Y142300D01*
D02*
G37*
G36*
X23425D02*
Y137390D01*
X28335D01*
X28215Y138307D01*
X27668Y139628D01*
X26797Y140762D01*
X25663Y141632D01*
X24342Y142179D01*
X23425Y142300D01*
D02*
G37*
G36*
X36205D02*
X35287Y142179D01*
X33967Y141632D01*
X32833Y140762D01*
X31962Y139628D01*
X31415Y138307D01*
X31295Y137390D01*
X36205D01*
Y142300D01*
D02*
G37*
G36*
X22425D02*
X21508Y142179D01*
X20187Y141632D01*
X19053Y140762D01*
X18183Y139628D01*
X17636Y138307D01*
X17515Y137390D01*
X22425D01*
Y142300D01*
D02*
G37*
G36*
X395921Y137972D02*
X392500D01*
Y134551D01*
X393032Y134621D01*
X393993Y135020D01*
X394819Y135653D01*
X395453Y136479D01*
X395851Y137441D01*
X395921Y137972D01*
D02*
G37*
G36*
X391500D02*
X388079D01*
X388149Y137441D01*
X388547Y136479D01*
X389181Y135653D01*
X390007Y135020D01*
X390968Y134621D01*
X391500Y134551D01*
Y137972D01*
D02*
G37*
G36*
X42115Y136390D02*
X37205D01*
Y131480D01*
X38122Y131600D01*
X39443Y132147D01*
X40577Y133018D01*
X41447Y134152D01*
X41994Y135472D01*
X42115Y136390D01*
D02*
G37*
G36*
X28335D02*
X23425D01*
Y131480D01*
X24342Y131600D01*
X25663Y132147D01*
X26797Y133018D01*
X27668Y134152D01*
X28215Y135472D01*
X28335Y136390D01*
D02*
G37*
G36*
X36205D02*
X31295D01*
X31415Y135472D01*
X31962Y134152D01*
X32833Y133018D01*
X33967Y132147D01*
X35287Y131600D01*
X36205Y131480D01*
Y136390D01*
D02*
G37*
G36*
X22425D02*
X17515D01*
X17636Y135472D01*
X18183Y134152D01*
X19053Y133018D01*
X20187Y132147D01*
X21508Y131600D01*
X22425Y131480D01*
Y136390D01*
D02*
G37*
G36*
X156000Y125530D02*
X155086Y125410D01*
X154235Y125057D01*
X153504Y124496D01*
X152943Y123765D01*
X152590Y122914D01*
X152470Y122000D01*
X152590Y121086D01*
X152688Y120851D01*
X146919Y115081D01*
X146587Y114585D01*
X146471Y114000D01*
Y37155D01*
X146235Y37057D01*
X145504Y36496D01*
X144943Y35765D01*
X144590Y34914D01*
X144470Y34000D01*
X144590Y33086D01*
X144943Y32235D01*
X145504Y31504D01*
X146235Y30943D01*
X147086Y30590D01*
X148000Y30470D01*
X148914Y30590D01*
X149765Y30943D01*
X150496Y31504D01*
X151057Y32235D01*
X151410Y33086D01*
X151530Y34000D01*
X151410Y34914D01*
X151057Y35765D01*
X150496Y36496D01*
X149765Y37057D01*
X149529Y37155D01*
Y113366D01*
X154851Y118688D01*
X155086Y118590D01*
X156000Y118470D01*
X156914Y118590D01*
X157765Y118943D01*
X158496Y119504D01*
X159057Y120235D01*
X159410Y121086D01*
X159530Y122000D01*
X159410Y122914D01*
X159057Y123765D01*
X158496Y124496D01*
X157765Y125057D01*
X156914Y125410D01*
X156000Y125530D01*
D02*
G37*
G36*
X36705Y128586D02*
X35287Y128400D01*
X33967Y127853D01*
X32833Y126982D01*
X31962Y125848D01*
X31415Y124528D01*
X31229Y123110D01*
X31415Y121693D01*
X31962Y120372D01*
X32833Y119238D01*
X33967Y118368D01*
X35287Y117821D01*
X36705Y117634D01*
X38122Y117821D01*
X39443Y118368D01*
X40577Y119238D01*
X41447Y120372D01*
X41994Y121693D01*
X42181Y123110D01*
X41994Y124528D01*
X41447Y125848D01*
X40577Y126982D01*
X39443Y127853D01*
X38122Y128400D01*
X36705Y128586D01*
D02*
G37*
G36*
X22925D02*
X21508Y128400D01*
X20187Y127853D01*
X19053Y126982D01*
X18183Y125848D01*
X17636Y124528D01*
X17449Y123110D01*
X17636Y121693D01*
X18183Y120372D01*
X19053Y119238D01*
X20187Y118368D01*
X21508Y117821D01*
X22925Y117634D01*
X24342Y117821D01*
X25663Y118368D01*
X26797Y119238D01*
X27668Y120372D01*
X28215Y121693D01*
X28401Y123110D01*
X28215Y124528D01*
X27668Y125848D01*
X26797Y126982D01*
X25663Y127853D01*
X24342Y128400D01*
X22925Y128586D01*
D02*
G37*
G36*
X178000Y117530D02*
X177086Y117410D01*
X176235Y117057D01*
X175504Y116496D01*
X174943Y115765D01*
X174590Y114914D01*
X174470Y114000D01*
X174590Y113086D01*
X174943Y112235D01*
X175504Y111504D01*
X176235Y110943D01*
X177086Y110590D01*
X178000Y110470D01*
X178914Y110590D01*
X179765Y110943D01*
X180496Y111504D01*
X181057Y112235D01*
X181155Y112471D01*
X287367D01*
X291808Y108029D01*
X291601Y107529D01*
X181155D01*
X181057Y107765D01*
X180496Y108496D01*
X179765Y109057D01*
X178914Y109410D01*
X178000Y109530D01*
X177086Y109410D01*
X176235Y109057D01*
X175504Y108496D01*
X174943Y107765D01*
X174590Y106914D01*
X174470Y106000D01*
X174590Y105086D01*
X174943Y104235D01*
X175504Y103504D01*
X176235Y102943D01*
X177086Y102590D01*
X178000Y102470D01*
X178914Y102590D01*
X179765Y102943D01*
X180496Y103504D01*
X181057Y104235D01*
X181155Y104471D01*
X291367D01*
X332471Y63367D01*
Y47155D01*
X332235Y47057D01*
X331504Y46496D01*
X330943Y45765D01*
X330590Y44914D01*
X330470Y44000D01*
X330590Y43086D01*
X330943Y42235D01*
X331504Y41504D01*
X332235Y40943D01*
X333086Y40590D01*
X334000Y40470D01*
X334914Y40590D01*
X335765Y40943D01*
X336496Y41504D01*
X337057Y42235D01*
X337410Y43086D01*
X337530Y44000D01*
X337410Y44914D01*
X337057Y45765D01*
X336496Y46496D01*
X335765Y47057D01*
X335529Y47155D01*
Y63601D01*
X336029Y63808D01*
X354688Y45149D01*
X354590Y44914D01*
X354470Y44000D01*
X354590Y43086D01*
X354943Y42235D01*
X355504Y41504D01*
X356235Y40943D01*
X357086Y40590D01*
X358000Y40470D01*
X358914Y40590D01*
X359765Y40943D01*
X360496Y41504D01*
X361057Y42235D01*
X361410Y43086D01*
X361530Y44000D01*
X361410Y44914D01*
X361057Y45765D01*
X360496Y46496D01*
X359765Y47057D01*
X358914Y47410D01*
X358000Y47530D01*
X357086Y47410D01*
X356851Y47312D01*
X289081Y115081D01*
X288585Y115413D01*
X288000Y115529D01*
X181155D01*
X181057Y115765D01*
X180496Y116496D01*
X179765Y117057D01*
X178914Y117410D01*
X178000Y117530D01*
D02*
G37*
G36*
X36705Y114807D02*
X35287Y114620D01*
X33967Y114073D01*
X32833Y113203D01*
X31962Y112069D01*
X31415Y110748D01*
X31229Y109331D01*
X31415Y107913D01*
X31962Y106593D01*
X32833Y105459D01*
X33967Y104588D01*
X35287Y104041D01*
X36705Y103855D01*
X38122Y104041D01*
X39443Y104588D01*
X40577Y105459D01*
X41447Y106593D01*
X41994Y107913D01*
X42181Y109331D01*
X41994Y110748D01*
X41447Y112069D01*
X40577Y113203D01*
X39443Y114073D01*
X38122Y114620D01*
X36705Y114807D01*
D02*
G37*
G36*
X22925D02*
X21508Y114620D01*
X20187Y114073D01*
X19053Y113203D01*
X18183Y112069D01*
X17636Y110748D01*
X17449Y109331D01*
X17636Y107913D01*
X18183Y106593D01*
X19053Y105459D01*
X20187Y104588D01*
X21508Y104041D01*
X22925Y103855D01*
X24342Y104041D01*
X25663Y104588D01*
X26797Y105459D01*
X27668Y106593D01*
X28215Y107913D01*
X28401Y109331D01*
X28215Y110748D01*
X27668Y112069D01*
X26797Y113203D01*
X25663Y114073D01*
X24342Y114620D01*
X22925Y114807D01*
D02*
G37*
G36*
X212500Y97464D02*
Y94500D01*
X215464D01*
X215410Y94914D01*
X215057Y95765D01*
X214496Y96496D01*
X213765Y97057D01*
X212914Y97410D01*
X212500Y97464D01*
D02*
G37*
G36*
X211500D02*
X211086Y97410D01*
X210235Y97057D01*
X209504Y96496D01*
X208943Y95765D01*
X208590Y94914D01*
X208536Y94500D01*
X211500D01*
Y97464D01*
D02*
G37*
G36*
X215464Y93500D02*
X212500D01*
Y90536D01*
X212914Y90590D01*
X213765Y90943D01*
X214496Y91504D01*
X215057Y92235D01*
X215410Y93086D01*
X215464Y93500D01*
D02*
G37*
G36*
X211500D02*
X208536D01*
X208590Y93086D01*
X208943Y92235D01*
X209504Y91504D01*
X210235Y90943D01*
X211086Y90590D01*
X211500Y90536D01*
Y93500D01*
D02*
G37*
G36*
X27020Y90689D02*
X25280Y90517D01*
X23607Y90010D01*
X22066Y89186D01*
X20714Y88077D01*
X19605Y86726D01*
X18781Y85184D01*
X18274Y83511D01*
X18103Y81772D01*
X18274Y80032D01*
X18781Y78359D01*
X19605Y76818D01*
X20714Y75466D01*
X22066Y74357D01*
X23607Y73533D01*
X25280Y73026D01*
X27020Y72855D01*
X28759Y73026D01*
X30432Y73533D01*
X31974Y74357D01*
X33325Y75466D01*
X34434Y76818D01*
X35258Y78359D01*
X35765Y80032D01*
X35937Y81772D01*
X35765Y83511D01*
X35258Y85184D01*
X34434Y86726D01*
X33325Y88077D01*
X31974Y89186D01*
X30432Y90010D01*
X28759Y90517D01*
X27020Y90689D01*
D02*
G37*
G36*
X274000Y93530D02*
X273086Y93410D01*
X272235Y93057D01*
X271504Y92496D01*
X270943Y91765D01*
X270590Y90914D01*
X270470Y90000D01*
X270590Y89086D01*
X270943Y88235D01*
X270974Y88194D01*
Y88000D01*
X271077Y87217D01*
X271379Y86487D01*
X271860Y85860D01*
X288583Y69137D01*
X288590Y69086D01*
X288943Y68235D01*
X289504Y67504D01*
X290235Y66943D01*
X291086Y66590D01*
X292000Y66470D01*
X292914Y66590D01*
X293765Y66943D01*
X294496Y67504D01*
X295057Y68235D01*
X295410Y69086D01*
X295530Y70000D01*
X295410Y70914D01*
X295057Y71765D01*
X294496Y72496D01*
X293765Y73057D01*
X292914Y73410D01*
X292863Y73417D01*
X277346Y88933D01*
X277410Y89086D01*
X277530Y90000D01*
X277410Y90914D01*
X277057Y91765D01*
X276496Y92496D01*
X275765Y93057D01*
X274914Y93410D01*
X274000Y93530D01*
D02*
G37*
G36*
X208500Y51464D02*
Y48500D01*
X211464D01*
X211410Y48914D01*
X211057Y49765D01*
X210496Y50496D01*
X209765Y51057D01*
X208914Y51410D01*
X208500Y51464D01*
D02*
G37*
G36*
X207500D02*
X207086Y51410D01*
X206235Y51057D01*
X205504Y50496D01*
X204943Y49765D01*
X204590Y48914D01*
X204536Y48500D01*
X207500D01*
Y51464D01*
D02*
G37*
G36*
X211464Y47500D02*
X208500D01*
Y44536D01*
X208914Y44590D01*
X209765Y44943D01*
X210496Y45504D01*
X211057Y46235D01*
X211410Y47086D01*
X211464Y47500D01*
D02*
G37*
G36*
X207500D02*
X204536D01*
X204590Y47086D01*
X204943Y46235D01*
X205504Y45504D01*
X206235Y44943D01*
X207086Y44590D01*
X207500Y44536D01*
Y47500D01*
D02*
G37*
G36*
X182500Y23464D02*
Y20500D01*
X185464D01*
X185410Y20914D01*
X185057Y21765D01*
X184496Y22496D01*
X183765Y23057D01*
X182914Y23410D01*
X182500Y23464D01*
D02*
G37*
G36*
X181500D02*
X181086Y23410D01*
X180235Y23057D01*
X179504Y22496D01*
X178943Y21765D01*
X178590Y20914D01*
X178536Y20500D01*
X181500D01*
Y23464D01*
D02*
G37*
G36*
X185464Y19500D02*
X182500D01*
Y16536D01*
X182914Y16590D01*
X183765Y16943D01*
X184496Y17504D01*
X185057Y18235D01*
X185410Y19086D01*
X185464Y19500D01*
D02*
G37*
G36*
X181500D02*
X178536D01*
X178590Y19086D01*
X178943Y18235D01*
X179504Y17504D01*
X180235Y16943D01*
X181086Y16590D01*
X181500Y16536D01*
Y19500D01*
D02*
G37*
G36*
X62500Y19464D02*
Y16500D01*
X65464D01*
X65410Y16914D01*
X65057Y17765D01*
X64496Y18496D01*
X63765Y19057D01*
X62914Y19410D01*
X62500Y19464D01*
D02*
G37*
G36*
X61500D02*
X61086Y19410D01*
X60235Y19057D01*
X59504Y18496D01*
X58943Y17765D01*
X58590Y16914D01*
X58536Y16500D01*
X61500D01*
Y19464D01*
D02*
G37*
G36*
X132626Y17524D02*
Y14500D01*
X135650D01*
X135593Y14929D01*
X135235Y15795D01*
X134664Y16538D01*
X133921Y17109D01*
X133055Y17467D01*
X132626Y17524D01*
D02*
G37*
G36*
X65464Y15500D02*
X62500D01*
Y12536D01*
X62914Y12590D01*
X63765Y12943D01*
X64496Y13504D01*
X65057Y14235D01*
X65410Y15086D01*
X65464Y15500D01*
D02*
G37*
G36*
X61500D02*
X58536D01*
X58590Y15086D01*
X58943Y14235D01*
X59504Y13504D01*
X60235Y12943D01*
X61086Y12590D01*
X61500Y12536D01*
Y15500D01*
D02*
G37*
G36*
X147874Y17391D02*
X146996Y17276D01*
X146178Y16937D01*
X145476Y16398D01*
X144937Y15696D01*
X144598Y14878D01*
X144483Y14000D01*
X144598Y13122D01*
X144937Y12304D01*
X145476Y11602D01*
X146178Y11063D01*
X146996Y10724D01*
X147874Y10609D01*
X148752Y10724D01*
X149570Y11063D01*
X150272Y11602D01*
X150811Y12304D01*
X151150Y13122D01*
X151265Y14000D01*
X151150Y14878D01*
X150811Y15696D01*
X150272Y16398D01*
X149570Y16937D01*
X148752Y17276D01*
X147874Y17391D01*
D02*
G37*
G36*
X135650Y13500D02*
X132626D01*
Y10476D01*
X133055Y10533D01*
X133921Y10891D01*
X134664Y11462D01*
X135235Y12205D01*
X135593Y13071D01*
X135650Y13500D01*
D02*
G37*
G36*
X124252Y17987D02*
X123220Y17851D01*
X122258Y17453D01*
X121433Y16819D01*
X120799Y15993D01*
X120401Y15032D01*
X120265Y14000D01*
X120401Y12968D01*
X120799Y12007D01*
X121433Y11181D01*
X122258Y10547D01*
X123220Y10149D01*
X124252Y10013D01*
X125284Y10149D01*
X126245Y10547D01*
X127071Y11181D01*
X127705Y12007D01*
X128103Y12968D01*
X128135Y13214D01*
X128640D01*
X128658Y13071D01*
X129017Y12205D01*
X129588Y11462D01*
X130331Y10891D01*
X131197Y10533D01*
X131626Y10476D01*
Y14000D01*
Y17524D01*
X131197Y17467D01*
X130331Y17109D01*
X129588Y16538D01*
X129017Y15795D01*
X128658Y14929D01*
X128640Y14786D01*
X128135D01*
X128103Y15032D01*
X127705Y15993D01*
X127071Y16819D01*
X126245Y17453D01*
X125284Y17851D01*
X124252Y17987D01*
D02*
G37*
G36*
X140000Y17590D02*
X139071Y17467D01*
X138205Y17109D01*
X137462Y16538D01*
X136891Y15795D01*
X136533Y14929D01*
X136410Y14000D01*
X136533Y13071D01*
X136891Y12205D01*
X137462Y11462D01*
X138205Y10891D01*
X139071Y10533D01*
X140000Y10410D01*
X140929Y10533D01*
X141795Y10891D01*
X142538Y11462D01*
X143109Y12205D01*
X143467Y13071D01*
X143590Y14000D01*
X143467Y14929D01*
X143109Y15795D01*
X142538Y16538D01*
X141795Y17109D01*
X140929Y17467D01*
X140000Y17590D01*
D02*
G37*
G36*
X155748Y17987D02*
X154716Y17851D01*
X153755Y17453D01*
X152929Y16819D01*
X152295Y15993D01*
X151897Y15032D01*
X151761Y14000D01*
X151897Y12968D01*
X152295Y12007D01*
X152929Y11181D01*
X153755Y10547D01*
X154716Y10149D01*
X155748Y10013D01*
X156780Y10149D01*
X157741Y10547D01*
X158567Y11181D01*
X159201Y12007D01*
X159599Y12968D01*
X159735Y14000D01*
X159599Y15032D01*
X159201Y15993D01*
X158567Y16819D01*
X157741Y17453D01*
X156780Y17851D01*
X155748Y17987D01*
D02*
G37*
G36*
X248500Y11921D02*
Y8500D01*
X251921D01*
X251851Y9032D01*
X251453Y9993D01*
X250819Y10819D01*
X249993Y11453D01*
X249032Y11851D01*
X248500Y11921D01*
D02*
G37*
G36*
X281953Y11953D02*
X278500D01*
Y8500D01*
X281953D01*
Y11953D01*
D02*
G37*
G36*
X247500Y11921D02*
X246968Y11851D01*
X246007Y11453D01*
X245181Y10819D01*
X244547Y9993D01*
X244149Y9032D01*
X244079Y8500D01*
X247500D01*
Y11921D01*
D02*
G37*
G36*
X277500Y11953D02*
X274047D01*
Y8500D01*
X277500D01*
Y11953D01*
D02*
G37*
G36*
X251921Y7500D02*
X248500D01*
Y4079D01*
X249032Y4149D01*
X249993Y4547D01*
X250819Y5181D01*
X251453Y6007D01*
X251851Y6968D01*
X251921Y7500D01*
D02*
G37*
G36*
X247500D02*
X244079D01*
X244149Y6968D01*
X244547Y6007D01*
X245181Y5181D01*
X246007Y4547D01*
X246968Y4149D01*
X247500Y4079D01*
Y7500D01*
D02*
G37*
G36*
X281953D02*
X278500D01*
Y4047D01*
X281953D01*
Y7500D01*
D02*
G37*
G36*
X277500D02*
X274047D01*
Y4047D01*
X277500D01*
Y7500D01*
D02*
G37*
G36*
X258000Y11987D02*
X256968Y11851D01*
X256007Y11453D01*
X255181Y10819D01*
X254547Y9993D01*
X254149Y9032D01*
X254013Y8000D01*
X254149Y6968D01*
X254547Y6007D01*
X255181Y5181D01*
X256007Y4547D01*
X256968Y4149D01*
X258000Y4013D01*
X259032Y4149D01*
X259993Y4547D01*
X260819Y5181D01*
X261453Y6007D01*
X261851Y6968D01*
X261987Y8000D01*
X261851Y9032D01*
X261453Y9993D01*
X260819Y10819D01*
X259993Y11453D01*
X259032Y11851D01*
X258000Y11987D01*
D02*
G37*
G36*
X238000D02*
X236968Y11851D01*
X236007Y11453D01*
X235181Y10819D01*
X234547Y9993D01*
X234149Y9032D01*
X234013Y8000D01*
X234149Y6968D01*
X234547Y6007D01*
X235181Y5181D01*
X236007Y4547D01*
X236968Y4149D01*
X238000Y4013D01*
X239032Y4149D01*
X239993Y4547D01*
X240819Y5181D01*
X241453Y6007D01*
X241851Y6968D01*
X241987Y8000D01*
X241851Y9032D01*
X241453Y9993D01*
X240819Y10819D01*
X239993Y11453D01*
X239032Y11851D01*
X238000Y11987D01*
D02*
G37*
G36*
X228000D02*
X226968Y11851D01*
X226007Y11453D01*
X225181Y10819D01*
X224547Y9993D01*
X224149Y9032D01*
X224013Y8000D01*
X224149Y6968D01*
X224547Y6007D01*
X225181Y5181D01*
X226007Y4547D01*
X226968Y4149D01*
X228000Y4013D01*
X229032Y4149D01*
X229993Y4547D01*
X230819Y5181D01*
X231453Y6007D01*
X231851Y6968D01*
X231987Y8000D01*
X231851Y9032D01*
X231453Y9993D01*
X230819Y10819D01*
X229993Y11453D01*
X229032Y11851D01*
X228000Y11987D01*
D02*
G37*
G36*
X218000D02*
X216968Y11851D01*
X216007Y11453D01*
X215181Y10819D01*
X214547Y9993D01*
X214149Y9032D01*
X214013Y8000D01*
X214149Y6968D01*
X214547Y6007D01*
X215181Y5181D01*
X216007Y4547D01*
X216968Y4149D01*
X218000Y4013D01*
X219032Y4149D01*
X219993Y4547D01*
X220819Y5181D01*
X221453Y6007D01*
X221851Y6968D01*
X221987Y8000D01*
X221851Y9032D01*
X221453Y9993D01*
X220819Y10819D01*
X219993Y11453D01*
X219032Y11851D01*
X218000Y11987D01*
D02*
G37*
G36*
X208000D02*
X206968Y11851D01*
X206007Y11453D01*
X205181Y10819D01*
X204547Y9993D01*
X204149Y9032D01*
X204013Y8000D01*
X204149Y6968D01*
X204547Y6007D01*
X205181Y5181D01*
X206007Y4547D01*
X206968Y4149D01*
X208000Y4013D01*
X209032Y4149D01*
X209993Y4547D01*
X210819Y5181D01*
X211453Y6007D01*
X211851Y6968D01*
X211987Y8000D01*
X211851Y9032D01*
X211453Y9993D01*
X210819Y10819D01*
X209993Y11453D01*
X209032Y11851D01*
X208000Y11987D01*
D02*
G37*
G36*
X185150Y12150D02*
X176850D01*
Y3850D01*
X185150D01*
Y12150D01*
D02*
G37*
G36*
X191000Y12185D02*
X189917Y12043D01*
X188907Y11625D01*
X188040Y10960D01*
X187375Y10093D01*
X186957Y9083D01*
X186815Y8000D01*
X186957Y6917D01*
X187375Y5907D01*
X188040Y5040D01*
X188907Y4375D01*
X189917Y3957D01*
X191000Y3815D01*
X192083Y3957D01*
X193093Y4375D01*
X193959Y5040D01*
X194625Y5907D01*
X195043Y6917D01*
X195185Y8000D01*
X195043Y9083D01*
X194625Y10093D01*
X193959Y10960D01*
X193093Y11625D01*
X192083Y12043D01*
X191000Y12185D01*
D02*
G37*
%LPD*%
D11*
X382000Y194000D02*
Y270000D01*
X326000Y326000D02*
X382000Y270000D01*
Y194000D02*
X387181Y188819D01*
X202752Y19000D02*
X252000D01*
X195753Y26000D02*
X202752Y19000D01*
X252657Y24000D02*
X268000Y8657D01*
X226000Y24000D02*
X252657D01*
X268000Y8000D02*
Y8657D01*
X324000Y394000D02*
X344000D01*
X308000Y378000D02*
X324000Y394000D01*
X308000Y350000D02*
Y378000D01*
X326000Y326000D02*
Y390000D01*
X166000Y66000D02*
Y208000D01*
X162000Y62000D02*
Y160000D01*
X402000Y114000D02*
Y174000D01*
X387181Y188819D02*
X402000Y174000D01*
X172000Y206000D02*
X322000Y356000D01*
X178000Y114000D02*
X288000D01*
X358000Y44000D01*
X334000D02*
Y64000D01*
X178000Y106000D02*
X292000D01*
X334000Y64000D01*
X166000Y208000D02*
X308000Y350000D01*
X172000Y206000D02*
X172000Y76000D01*
X215522Y32478D01*
X217522D01*
X102000Y28000D02*
X102586D01*
X218000Y32000D02*
X226000Y24000D01*
X162000Y62000D02*
X188000Y36000D01*
X148000Y34000D02*
Y114000D01*
X156000Y122000D01*
X104586Y26000D02*
X195753D01*
X102586Y28000D02*
X104586Y26000D01*
X166000Y66000D02*
X196000Y36000D01*
D230*
X217522Y32478D02*
X218000Y32000D01*
D232*
X246000Y156000D02*
Y164000D01*
X246069Y164069D01*
X248000Y222000D02*
Y222000D01*
X246069Y220069D02*
X248000Y222000D01*
X246069Y164069D02*
Y220069D01*
X314000Y288000D02*
X356000D01*
X248000Y222000D02*
X314000Y288000D01*
D233*
X274000Y88000D02*
X292000Y70000D01*
X274000Y88000D02*
Y90000D01*
X36705Y150669D02*
X37374Y150000D01*
D234*
X106342Y345500D02*
D03*
D235*
X86658D02*
D03*
X147874Y14000D02*
D03*
D236*
X432000Y12000D02*
D03*
Y452000D02*
D03*
X12000D02*
D03*
Y12000D02*
D03*
D237*
X200000Y386000D02*
D03*
X278000D02*
D03*
D238*
X190000D02*
D03*
X180000D02*
D03*
X268000D02*
D03*
X258000D02*
D03*
D239*
X208000Y8000D02*
D03*
X218000D02*
D03*
X228000D02*
D03*
X238000D02*
D03*
X248000D02*
D03*
X258000D02*
D03*
X268000D02*
D03*
X124252Y14000D02*
D03*
X155748D02*
D03*
X62024Y310000D02*
D03*
X392000Y138472D02*
D03*
D240*
X278000Y8000D02*
D03*
X89976Y310000D02*
D03*
D241*
X181000Y8000D02*
D03*
D242*
X191000D02*
D03*
D243*
X118516Y385307D02*
D03*
X65484D02*
D03*
X118516Y398693D02*
D03*
X65484D02*
D03*
X373484Y210693D02*
D03*
X426516D02*
D03*
X373484Y197307D02*
D03*
X426516D02*
D03*
X388693Y340516D02*
D03*
Y287484D02*
D03*
X375307Y340516D02*
D03*
Y287484D02*
D03*
Y373484D02*
D03*
Y426516D02*
D03*
X388693Y373484D02*
D03*
Y426516D02*
D03*
D244*
X132126Y14000D02*
D03*
X140000D02*
D03*
D245*
X417906Y399339D02*
D03*
Y302882D02*
D03*
X27020Y278000D02*
D03*
Y374457D02*
D03*
Y81772D02*
D03*
Y178228D02*
D03*
D246*
X422000Y371780D02*
D03*
Y358000D02*
D03*
Y344221D02*
D03*
Y330441D02*
D03*
X408220Y371780D02*
D03*
Y358000D02*
D03*
Y344221D02*
D03*
X22925Y305559D02*
D03*
Y319339D02*
D03*
Y333118D02*
D03*
Y346898D02*
D03*
X36705Y305559D02*
D03*
Y319339D02*
D03*
Y333118D02*
D03*
X22925Y109331D02*
D03*
Y123110D02*
D03*
Y136890D02*
D03*
Y150669D02*
D03*
X36705Y109331D02*
D03*
Y123110D02*
D03*
Y136890D02*
D03*
D247*
X408220Y330441D02*
D03*
X36705Y346898D02*
D03*
Y150669D02*
D03*
D248*
X278000Y440000D02*
D03*
X198000D02*
D03*
D249*
X258000D02*
D03*
X178000D02*
D03*
D250*
X314000Y270000D02*
D03*
Y210000D02*
D03*
D251*
Y255000D02*
D03*
Y240000D02*
D03*
Y225000D02*
D03*
X118331Y215000D02*
D03*
Y240000D02*
D03*
Y265000D02*
D03*
D252*
X392000Y168000D02*
D03*
D253*
X216000Y440000D02*
D03*
Y400000D02*
D03*
X160000D02*
D03*
Y440000D02*
D03*
X296000D02*
D03*
Y400000D02*
D03*
X240000D02*
D03*
Y440000D02*
D03*
D254*
X212000Y94000D02*
D03*
X382000Y236000D02*
D03*
X252000Y19000D02*
D03*
X344000Y394000D02*
D03*
X326000Y390000D02*
D03*
X162000Y160000D02*
D03*
X246000Y156000D02*
D03*
X402000Y114000D02*
D03*
X322000Y356000D02*
D03*
X274000Y90000D02*
D03*
X292000Y70000D02*
D03*
X356000Y288000D02*
D03*
X334000Y44000D02*
D03*
X182000Y20000D02*
D03*
X178000Y106000D02*
D03*
Y114000D02*
D03*
X208000Y48000D02*
D03*
X62000Y16000D02*
D03*
X148000Y34000D02*
D03*
X156000Y122000D02*
D03*
X102000Y28000D02*
D03*
X188000Y36000D02*
D03*
X196000D02*
D03*
X218000Y32000D02*
D03*
X358000Y44000D02*
D03*
M02*
