G04*
G04 #@! TF.GenerationSoftware,Altium Limited,Altium Designer,20.0.9 (164)*
G04*
G04 Layer_Color=8388736*
%FSLAX25Y25*%
%MOIN*%
G70*
G01*
G75*
%ADD180R,0.09068X0.14383*%
%ADD181R,0.16548X0.06706*%
%ADD182R,0.11509X0.05761*%
%ADD183R,0.07690X0.04737*%
%ADD184R,0.04737X0.06509*%
%ADD185R,0.05721X0.05131*%
%ADD186R,0.05524X0.03162*%
%ADD187R,0.03753X0.03162*%
%ADD188R,0.03950X0.03950*%
%ADD189R,0.03162X0.03241*%
%ADD190R,0.03359X0.06804*%
%ADD191R,0.03713X0.11804*%
%ADD192R,0.07808X0.13202*%
%ADD193R,0.06509X0.04737*%
%ADD194R,0.06804X0.03359*%
%ADD195R,0.03162X0.05524*%
%ADD196R,0.02572X0.06233*%
%ADD197R,0.06607X0.09068*%
%ADD198R,0.05426X0.08280*%
%ADD199R,0.10150X0.08280*%
%ADD200R,0.04580X0.06272*%
%ADD201R,0.06272X0.04580*%
%ADD202R,0.01981X0.06607*%
%ADD203R,0.06607X0.01981*%
%ADD204R,0.06587X0.04619*%
%ADD205R,0.02670X0.01981*%
%ADD206R,0.02670X0.02769*%
%ADD207R,0.06307X0.02370*%
%ADD208R,0.03241X0.03162*%
%ADD209R,0.05524X0.05524*%
%ADD210C,0.05524*%
%ADD211C,0.17300*%
%ADD212R,0.08772X0.08772*%
%ADD213C,0.08772*%
%ADD214C,0.06706*%
%ADD215R,0.06706X0.06706*%
%ADD216R,0.07099X0.07099*%
%ADD217C,0.07099*%
%ADD218C,0.10249*%
%ADD219C,0.05918*%
%ADD220C,0.16548*%
%ADD221C,0.09658*%
%ADD222R,0.09658X0.09658*%
%ADD223R,0.07532X0.07532*%
%ADD224C,0.07532*%
%ADD225C,0.10446*%
%ADD226C,0.07887*%
%ADD227R,0.06706X0.06706*%
%ADD228C,0.06312*%
%ADD229C,0.05800*%
D180*
X408236Y250000D02*
D03*
X387764D02*
D03*
X348736Y426677D02*
D03*
X328264D02*
D03*
D181*
X390000Y46173D02*
D03*
Y32000D02*
D03*
X392000Y96000D02*
D03*
Y81827D02*
D03*
D182*
X428000Y91236D02*
D03*
Y80764D02*
D03*
Y43236D02*
D03*
Y32764D02*
D03*
D183*
X54000Y47905D02*
D03*
Y36094D02*
D03*
X350000Y245905D02*
D03*
Y234095D02*
D03*
D184*
X342323Y82000D02*
D03*
X349803D02*
D03*
X78000Y98000D02*
D03*
X70520D02*
D03*
X78000Y84000D02*
D03*
X70520D02*
D03*
X77740Y70000D02*
D03*
X70260D02*
D03*
X77480Y56000D02*
D03*
X70000D02*
D03*
X77740Y46000D02*
D03*
X70260D02*
D03*
X342323Y98000D02*
D03*
X349803D02*
D03*
X244260Y32000D02*
D03*
X251740D02*
D03*
X226260D02*
D03*
X233740D02*
D03*
D185*
X328689Y82000D02*
D03*
X319437D02*
D03*
X92000Y42000D02*
D03*
X101252D02*
D03*
X92000Y56000D02*
D03*
X101252D02*
D03*
X92000Y70000D02*
D03*
X101252D02*
D03*
X328689Y98000D02*
D03*
X319437D02*
D03*
D186*
X394260Y228260D02*
D03*
Y232000D02*
D03*
Y235740D02*
D03*
X404102D02*
D03*
Y232000D02*
D03*
Y228260D02*
D03*
X343421Y402937D02*
D03*
Y406677D02*
D03*
Y410417D02*
D03*
X333579D02*
D03*
Y406677D02*
D03*
Y402937D02*
D03*
D187*
X398165Y106000D02*
D03*
X393835D02*
D03*
X394000Y56000D02*
D03*
X389669D02*
D03*
X425835Y98000D02*
D03*
X430165D02*
D03*
X425669Y50000D02*
D03*
X430000D02*
D03*
D188*
X88000Y84000D02*
D03*
X94496D02*
D03*
X88000Y96000D02*
D03*
X94496D02*
D03*
D189*
X58189Y28000D02*
D03*
X61811D02*
D03*
X103811Y22000D02*
D03*
X100189D02*
D03*
X322878Y402677D02*
D03*
X326500D02*
D03*
X383370Y228000D02*
D03*
X386992D02*
D03*
X211811Y360000D02*
D03*
X208189D02*
D03*
X289811Y362000D02*
D03*
X286189D02*
D03*
D190*
X292500Y60677D02*
D03*
X297500D02*
D03*
X302500D02*
D03*
X307500D02*
D03*
Y39323D02*
D03*
X302500D02*
D03*
X297500D02*
D03*
X292500D02*
D03*
X332500Y378677D02*
D03*
X337500D02*
D03*
X342500D02*
D03*
X347500D02*
D03*
Y357323D02*
D03*
X342500D02*
D03*
X337500D02*
D03*
X332500D02*
D03*
D191*
X230000Y77996D02*
D03*
Y94004D02*
D03*
X235000Y77996D02*
D03*
Y94004D02*
D03*
X240000Y77996D02*
D03*
Y94004D02*
D03*
X245000Y77996D02*
D03*
Y94004D02*
D03*
X250000Y77996D02*
D03*
Y94004D02*
D03*
D192*
X293705Y12000D02*
D03*
X314295D02*
D03*
D193*
X320000Y61480D02*
D03*
Y54000D02*
D03*
D194*
X356677Y69500D02*
D03*
Y64500D02*
D03*
Y59500D02*
D03*
Y54500D02*
D03*
X335323D02*
D03*
Y59500D02*
D03*
Y64500D02*
D03*
Y69500D02*
D03*
X70646Y12000D02*
D03*
Y17000D02*
D03*
Y22000D02*
D03*
Y27000D02*
D03*
X92000D02*
D03*
Y22000D02*
D03*
Y17000D02*
D03*
Y12000D02*
D03*
D195*
X342260Y34157D02*
D03*
X346000D02*
D03*
X349740D02*
D03*
Y44000D02*
D03*
X346000D02*
D03*
X342260D02*
D03*
D196*
X339585Y20472D02*
D03*
X342144D02*
D03*
X344703D02*
D03*
X347262D02*
D03*
X349821D02*
D03*
D197*
X354358Y19055D02*
D03*
X335047D02*
D03*
D198*
X341406Y10000D02*
D03*
X348000D02*
D03*
D199*
X333236D02*
D03*
X356169D02*
D03*
D200*
X155110Y114000D02*
D03*
X148890D02*
D03*
X181110Y38000D02*
D03*
X174890D02*
D03*
X181110Y30000D02*
D03*
X174890D02*
D03*
X155110Y106000D02*
D03*
X148890D02*
D03*
X193110Y342000D02*
D03*
X186890D02*
D03*
X271110Y344000D02*
D03*
X264890D02*
D03*
D201*
X204000Y88890D02*
D03*
Y95110D02*
D03*
Y60000D02*
D03*
Y53780D02*
D03*
X132000Y58220D02*
D03*
Y52000D02*
D03*
X140000Y58220D02*
D03*
Y52000D02*
D03*
X350000Y254890D02*
D03*
Y261110D02*
D03*
D202*
X157236Y51410D02*
D03*
X159205D02*
D03*
X161173D02*
D03*
X163142D02*
D03*
X165110D02*
D03*
X167079D02*
D03*
X169047D02*
D03*
X171016D02*
D03*
X172984D02*
D03*
X174953D02*
D03*
X176921D02*
D03*
X178890D02*
D03*
X180858D02*
D03*
X182827D02*
D03*
X184795D02*
D03*
X186764D02*
D03*
Y96591D02*
D03*
X184795D02*
D03*
X182827D02*
D03*
X180858D02*
D03*
X178890D02*
D03*
X176921D02*
D03*
X174953D02*
D03*
X172984D02*
D03*
X171016D02*
D03*
X169047D02*
D03*
X167079D02*
D03*
X165110D02*
D03*
X163142D02*
D03*
X161173D02*
D03*
X159205D02*
D03*
X157236D02*
D03*
D203*
X194591Y59236D02*
D03*
Y61205D02*
D03*
Y63173D02*
D03*
Y65142D02*
D03*
Y67110D02*
D03*
Y69079D02*
D03*
Y71047D02*
D03*
Y73016D02*
D03*
Y74984D02*
D03*
Y76953D02*
D03*
Y78921D02*
D03*
Y80890D02*
D03*
Y82858D02*
D03*
Y84827D02*
D03*
Y86795D02*
D03*
Y88764D02*
D03*
X149409D02*
D03*
Y86795D02*
D03*
Y84827D02*
D03*
Y82858D02*
D03*
Y80890D02*
D03*
Y78921D02*
D03*
Y76953D02*
D03*
Y74984D02*
D03*
Y73016D02*
D03*
Y71047D02*
D03*
Y69079D02*
D03*
Y67110D02*
D03*
Y65142D02*
D03*
Y63173D02*
D03*
Y61205D02*
D03*
Y59236D02*
D03*
D204*
X373374Y54535D02*
D03*
Y48000D02*
D03*
X376000Y103268D02*
D03*
Y96732D02*
D03*
D205*
X407701Y48264D02*
D03*
Y46295D02*
D03*
Y44327D02*
D03*
Y42358D02*
D03*
X414299D02*
D03*
Y44327D02*
D03*
Y46295D02*
D03*
Y48264D02*
D03*
X407717Y96953D02*
D03*
Y94984D02*
D03*
Y93016D02*
D03*
Y91047D02*
D03*
X414315D02*
D03*
Y93016D02*
D03*
Y94984D02*
D03*
Y96953D02*
D03*
D206*
X409982Y106000D02*
D03*
X414018D02*
D03*
X410000Y58000D02*
D03*
X414035D02*
D03*
D207*
X199717Y360559D02*
D03*
X182000D02*
D03*
Y358000D02*
D03*
Y355441D02*
D03*
Y352882D02*
D03*
X199717Y358000D02*
D03*
Y355441D02*
D03*
Y352882D02*
D03*
X276717Y361559D02*
D03*
X259000D02*
D03*
Y359000D02*
D03*
Y356441D02*
D03*
Y353882D02*
D03*
X276717Y359000D02*
D03*
Y356441D02*
D03*
Y353882D02*
D03*
D208*
X172000Y348189D02*
D03*
Y351811D02*
D03*
X250000Y350189D02*
D03*
Y353811D02*
D03*
D209*
X106342Y345500D02*
D03*
D210*
X86658D02*
D03*
X147874Y14000D02*
D03*
D211*
X432000Y12000D02*
D03*
Y452000D02*
D03*
X12000D02*
D03*
Y12000D02*
D03*
D212*
X200000Y386000D02*
D03*
X278000D02*
D03*
D213*
X190000D02*
D03*
X180000D02*
D03*
X268000D02*
D03*
X258000D02*
D03*
D214*
X208000Y8000D02*
D03*
X218000D02*
D03*
X228000D02*
D03*
X238000D02*
D03*
X248000D02*
D03*
X258000D02*
D03*
X268000D02*
D03*
X124252Y14000D02*
D03*
X155748D02*
D03*
X62024Y310000D02*
D03*
X392000Y138472D02*
D03*
D215*
X278000Y8000D02*
D03*
X89976Y310000D02*
D03*
D216*
X181000Y8000D02*
D03*
D217*
X191000D02*
D03*
D218*
X118516Y385307D02*
D03*
X65484D02*
D03*
X118516Y398693D02*
D03*
X65484D02*
D03*
X373484Y210693D02*
D03*
X426516D02*
D03*
X373484Y197307D02*
D03*
X426516D02*
D03*
X388693Y340516D02*
D03*
Y287484D02*
D03*
X375307Y340516D02*
D03*
Y287484D02*
D03*
Y373484D02*
D03*
Y426516D02*
D03*
X388693Y373484D02*
D03*
Y426516D02*
D03*
D219*
X132126Y14000D02*
D03*
X140000D02*
D03*
D220*
X417906Y399339D02*
D03*
Y302882D02*
D03*
X27020Y278000D02*
D03*
Y374457D02*
D03*
Y81772D02*
D03*
Y178228D02*
D03*
D221*
X422000Y371780D02*
D03*
Y358000D02*
D03*
Y344221D02*
D03*
Y330441D02*
D03*
X408220Y371780D02*
D03*
Y358000D02*
D03*
Y344221D02*
D03*
X22925Y305559D02*
D03*
Y319339D02*
D03*
Y333118D02*
D03*
Y346898D02*
D03*
X36705Y305559D02*
D03*
Y319339D02*
D03*
Y333118D02*
D03*
X22925Y109331D02*
D03*
Y123110D02*
D03*
Y136890D02*
D03*
Y150669D02*
D03*
X36705Y109331D02*
D03*
Y123110D02*
D03*
Y136890D02*
D03*
D222*
X408220Y330441D02*
D03*
X36705Y346898D02*
D03*
Y150669D02*
D03*
D223*
X278000Y440000D02*
D03*
X198000D02*
D03*
D224*
X258000D02*
D03*
X178000D02*
D03*
D225*
X314000Y270000D02*
D03*
Y210000D02*
D03*
D226*
Y255000D02*
D03*
Y240000D02*
D03*
Y225000D02*
D03*
X118331Y215000D02*
D03*
Y240000D02*
D03*
Y265000D02*
D03*
D227*
X392000Y168000D02*
D03*
D228*
X216000Y440000D02*
D03*
Y400000D02*
D03*
X160000D02*
D03*
Y440000D02*
D03*
X296000D02*
D03*
Y400000D02*
D03*
X240000D02*
D03*
Y440000D02*
D03*
D229*
X212000Y94000D02*
D03*
X382000Y236000D02*
D03*
X252000Y19000D02*
D03*
X344000Y394000D02*
D03*
X326000Y390000D02*
D03*
X162000Y160000D02*
D03*
X246000Y156000D02*
D03*
X402000Y114000D02*
D03*
X322000Y356000D02*
D03*
X274000Y90000D02*
D03*
X292000Y70000D02*
D03*
X356000Y288000D02*
D03*
X334000Y44000D02*
D03*
X182000Y20000D02*
D03*
X178000Y106000D02*
D03*
Y114000D02*
D03*
X208000Y48000D02*
D03*
X62000Y16000D02*
D03*
X148000Y34000D02*
D03*
X156000Y122000D02*
D03*
X102000Y28000D02*
D03*
X188000Y36000D02*
D03*
X196000D02*
D03*
X218000Y32000D02*
D03*
X358000Y44000D02*
D03*
M02*
