G04*
G04 #@! TF.GenerationSoftware,Altium Limited,Altium Designer,20.0.9 (164)*
G04*
G04 Layer_Color=255*
%FSLAX25Y25*%
%MOIN*%
G70*
G01*
G75*
%ADD234R,0.04724X0.04724*%
%ADD235C,0.04724*%
%ADD236C,0.16500*%
%ADD237R,0.07972X0.07972*%
%ADD238C,0.07972*%
%ADD239C,0.05906*%
%ADD240R,0.05906X0.05906*%
%ADD241R,0.06299X0.06299*%
%ADD242C,0.06299*%
%ADD243C,0.09449*%
%ADD244C,0.05118*%
%ADD245C,0.15748*%
%ADD246C,0.08858*%
%ADD247R,0.08858X0.08858*%
%ADD248R,0.06732X0.06732*%
%ADD249C,0.06732*%
%ADD250C,0.09646*%
%ADD251C,0.07087*%
%ADD252R,0.05906X0.05906*%
%ADD253C,0.05512*%
D234*
X106342Y345500D02*
D03*
D235*
X86658D02*
D03*
X147874Y14000D02*
D03*
D236*
X432000Y12000D02*
D03*
Y452000D02*
D03*
X12000D02*
D03*
Y12000D02*
D03*
D237*
X200000Y386000D02*
D03*
X278000D02*
D03*
D238*
X190000D02*
D03*
X180000D02*
D03*
X268000D02*
D03*
X258000D02*
D03*
D239*
X208000Y8000D02*
D03*
X218000D02*
D03*
X228000D02*
D03*
X238000D02*
D03*
X248000D02*
D03*
X258000D02*
D03*
X268000D02*
D03*
X124252Y14000D02*
D03*
X155748D02*
D03*
X62024Y310000D02*
D03*
X392000Y138472D02*
D03*
D240*
X278000Y8000D02*
D03*
X89976Y310000D02*
D03*
D241*
X181000Y8000D02*
D03*
D242*
X191000D02*
D03*
D243*
X118516Y385307D02*
D03*
X65484D02*
D03*
X118516Y398693D02*
D03*
X65484D02*
D03*
X373484Y210693D02*
D03*
X426516D02*
D03*
X373484Y197307D02*
D03*
X426516D02*
D03*
X388693Y340516D02*
D03*
Y287484D02*
D03*
X375307Y340516D02*
D03*
Y287484D02*
D03*
Y373484D02*
D03*
Y426516D02*
D03*
X388693Y373484D02*
D03*
Y426516D02*
D03*
D244*
X132126Y14000D02*
D03*
X140000D02*
D03*
D245*
X417906Y399339D02*
D03*
Y302882D02*
D03*
X27020Y278000D02*
D03*
Y374457D02*
D03*
Y81772D02*
D03*
Y178228D02*
D03*
D246*
X422000Y371780D02*
D03*
Y358000D02*
D03*
Y344221D02*
D03*
Y330441D02*
D03*
X408220Y371780D02*
D03*
Y358000D02*
D03*
Y344221D02*
D03*
X22925Y305559D02*
D03*
Y319339D02*
D03*
Y333118D02*
D03*
Y346898D02*
D03*
X36705Y305559D02*
D03*
Y319339D02*
D03*
Y333118D02*
D03*
X22925Y109331D02*
D03*
Y123110D02*
D03*
Y136890D02*
D03*
Y150669D02*
D03*
X36705Y109331D02*
D03*
Y123110D02*
D03*
Y136890D02*
D03*
D247*
X408220Y330441D02*
D03*
X36705Y346898D02*
D03*
Y150669D02*
D03*
D248*
X278000Y440000D02*
D03*
X198000D02*
D03*
D249*
X258000D02*
D03*
X178000D02*
D03*
D250*
X314000Y270000D02*
D03*
Y210000D02*
D03*
D251*
Y255000D02*
D03*
Y240000D02*
D03*
Y225000D02*
D03*
X118331Y215000D02*
D03*
Y240000D02*
D03*
Y265000D02*
D03*
D252*
X392000Y168000D02*
D03*
D253*
X216000Y440000D02*
D03*
Y400000D02*
D03*
X160000D02*
D03*
Y440000D02*
D03*
X296000D02*
D03*
Y400000D02*
D03*
X240000D02*
D03*
Y440000D02*
D03*
M02*
