M48
;Layer_Color=9474304
;FILE_FORMAT=2:5
INCH,LZ
;TYPE=PLATED
T1F00S00C0.02953
T2F00S00C0.03000
T3F00S00C0.03150
T4F00S00C0.03346
T5F00S00C0.03543
T6F00S00C0.03937
T7F00S00C0.04331
T8F00S00C0.04488
T9F00S00C0.04724
T10F00S00C0.05315
T11F00S00C0.05906
T12F00S00C0.06299
T13F00S00C0.06693
T14F00S00C0.11811
;TYPE=NON_PLATED
T15F00S00C0.15748
%
T01
X0147874Y0014
T02
X0062Y0016
X0102Y0028
X0148Y0034
X0182Y002
X0178Y0106
Y0114
X0212Y0094
X0208Y0048
X0196Y0036
X0188
X0218Y0032
X0252Y0019
X0292Y007
X0274Y009
X0334Y0044
X0358
X0402Y0114
X0382Y0236
X0246Y0156
X0162Y016
X0156Y0122
X0322Y0356
X0326Y039
X0344Y0394
X0356Y0288
T03
X0132126Y0014
X014
X0106342Y03455
X0086658
T04
X016Y04
X0216
X024
X0296
Y044
X024
X0216
X016
T05
X0208Y0008
X0218
X0228
X0238
X0248
X0258
X0268
X0278
X0089976Y031
X0062024
T06
X0124252Y0014
X0155748
X0392Y0138472
Y0168
T07
X0181Y0008
X0191
T08
X0198Y044
X0258
X0278
X0178
T09
X0314Y0225
Y024
Y0255
X0118331Y0265
Y024
Y0215
T10
X018Y0386
X019
X02
X0258
X0268
X0278
T11
X0022925Y0109331
X0036705
Y012311
Y013689
Y0150669
X0022925
Y013689
Y012311
Y0305559
Y0319339
Y0333118
Y0346898
X0036705
Y0333118
Y0319339
Y0305559
X040822Y0330441
X0422
Y0344221
Y0358
Y037178
X040822
Y0358
Y0344221
T12
X0373484Y0197307
Y0210693
X0426516
Y0197307
X0118516Y0385307
Y0398693
X0065484
Y0385307
X0375307Y0373484
X0388693
Y0340516
X0375307
Y0287484
X0388693
Y0426516
X0375307
T13
X0314Y021
Y027
T14
X0012Y0012
X0432
Y0452
X0012
T15
X002702Y0081772
Y0178228
Y0278
Y0374457
X0417906Y0399339
Y0302882
M30
